<?xml version="1.0" standalone="no"?>
<!DOCTYPE svg PUBLIC "-//W3C//DTD SVG 20010904//EN"
 "http://www.w3.org/TR/2001/REC-SVG-20010904/DTD/svg10.dtd">
<svg version="1.0" xmlns="http://www.w3.org/2000/svg"
 width="497.000000pt" height="498.000000pt" viewBox="0 0 497.000000 498.000000"
 preserveAspectRatio="xMidYMid meet">
<metadata>
Created by potrace 1.16, written by Peter Selinger 2001-2019
</metadata>
<g transform="translate(0.000000,498.000000) scale(0.100000,-0.100000)"
fill="#000000" stroke="none">
<path d="M2180 4956 c-142 -50 -256 -123 -356 -228 -69 -72 -141 -178 -170
-251 l-19 -49 -40 6 c-203 30 -357 2 -522 -95 -79 -47 -191 -161 -241 -244
-67 -114 -94 -209 -100 -352 l-5 -123 -71 0 c-95 0 -184 -22 -285 -71 -68 -33
-101 -58 -171 -128 -138 -138 -200 -285 -200 -475 0 -115 20 -198 72 -306 57
-119 177 -238 299 -298 139 -69 165 -72 661 -72 l437 0 45 -96 c25 -53 46
-101 46 -106 0 -5 -23 -43 -51 -85 -58 -86 -71 -140 -46 -189 22 -42 149 -162
181 -170 53 -13 101 2 180 57 l76 53 58 -29 c31 -16 82 -39 112 -52 l55 -22
-2 -73 c-2 -40 -12 -313 -24 -607 -21 -507 -21 -537 -5 -590 25 -81 79 -155
147 -200 228 -152 538 -3 556 268 3 36 -5 291 -16 566 -11 275 -22 531 -23
568 l-3 68 80 33 c44 18 94 41 111 51 l31 19 88 -57 c131 -85 170 -80 281 35
73 75 84 94 84 146 0 31 -11 56 -55 120 -30 45 -55 85 -55 91 0 5 20 52 45
103 l46 93 487 5 c475 6 489 6 552 29 112 39 190 89 277 176 130 132 193 283
193 471 0 189 -62 337 -200 474 -132 133 -286 200 -457 200 l-73 0 0 96 c0
287 -150 529 -405 655 -44 21 -109 46 -145 55 -72 18 -202 23 -295 11 l-61 -8
-13 38 c-54 155 -238 351 -411 438 -135 68 -174 75 -404 74 -193 0 -217 -2
-276 -23z m439 -88 c63 -12 170 -54 235 -92 146 -85 268 -233 326 -394 32 -88
42 -93 138 -71 148 36 296 19 422 -47 174 -91 289 -243 326 -434 15 -75 15
-98 4 -194 l-13 -109 23 -19 c14 -12 32 -17 44 -14 59 16 156 17 226 2 211
-44 375 -196 436 -401 23 -79 23 -219 0 -300 -53 -182 -200 -331 -386 -391
-48 -15 -105 -18 -460 -20 -283 -2 -394 0 -370 7 118 34 143 67 148 198 7 172
-26 213 -200 241 l-78 13 -20 68 c-11 37 -38 103 -60 147 -22 44 -40 84 -40
89 0 6 23 43 51 83 52 74 68 124 55 176 -4 14 -42 62 -85 105 -114 113 -150
116 -282 24 l-76 -54 -89 44 c-49 24 -117 52 -151 61 -38 10 -64 23 -67 33 -3
9 -12 53 -20 99 -27 142 -53 162 -214 162 -167 0 -190 -19 -220 -182 l-17 -91
-73 -23 c-40 -12 -108 -40 -152 -62 l-79 -40 -80 55 c-131 89 -167 85 -285
-34 -108 -108 -112 -141 -31 -264 30 -46 55 -90 55 -97 0 -7 -13 -36 -29 -65
-17 -28 -43 -92 -60 -142 l-30 -89 -98 -21 c-160 -34 -173 -50 -173 -217 0
-155 16 -180 140 -217 25 -7 -75 -9 -350 -7 -335 2 -392 5 -440 20 -188 60
-332 207 -386 391 -23 81 -23 221 0 300 62 209 228 359 445 402 69 14 97 15
159 6 110 -16 140 6 120 88 -6 24 -10 87 -10 139 1 172 64 315 193 435 153
143 341 193 557 148 59 -12 88 -14 99 -7 9 6 30 44 46 85 55 138 141 253 251
335 182 137 396 186 625 142z m-102 -1106 c7 -4 21 -52 32 -107 26 -126 43
-145 158 -180 46 -14 118 -44 161 -66 104 -55 141 -52 243 19 40 29 78 52 84
52 6 0 37 -26 68 -58 l58 -59 -56 -82 c-77 -111 -80 -136 -27 -238 22 -43 54
-119 71 -168 41 -121 56 -134 183 -159 l103 -21 3 -87 c3 -98 11 -90 -98 -108
-136 -23 -155 -38 -191 -157 -12 -37 -42 -108 -66 -157 -56 -112 -55 -138 14
-239 26 -40 52 -78 56 -85 6 -8 -11 -33 -51 -74 l-60 -62 -87 58 c-118 78
-132 79 -248 22 -52 -25 -98 -46 -104 -46 -11 0 -23 99 -23 186 l0 51 65 43
c351 226 421 689 154 1018 -54 68 -179 162 -214 162 -11 0 -29 -6 -40 -13 -18
-14 -20 -41 -24 -392 l-1 -80 -120 -62 -119 -62 -120 62 -121 62 0 220 c0 183
-3 224 -16 243 -21 30 -60 28 -109 -5 -201 -134 -315 -341 -315 -572 1 -175
60 -334 172 -456 59 -64 174 -155 197 -155 7 0 11 -29 11 -87 0 -101 -9 -163
-22 -163 -5 0 -52 21 -104 46 -116 57 -135 55 -248 -22 l-79 -55 -26 23 c-49
43 -91 89 -91 101 0 7 25 50 55 96 68 103 69 124 15 231 -22 44 -52 115 -65
157 -42 127 -50 135 -172 159 -43 8 -88 17 -101 20 -22 4 -23 8 -20 92 l3 87
102 20 c130 27 151 44 187 159 14 45 43 118 66 161 55 110 54 134 -15 234 -30
44 -55 86 -55 94 0 20 107 120 122 114 8 -3 49 -28 92 -56 101 -66 125 -66
243 -7 49 24 120 54 160 65 101 30 125 59 147 182 10 51 23 97 29 101 16 10
139 10 154 0z m-417 -1102 c54 -35 325 -170 342 -170 24 0 328 157 346 178 8
11 12 68 12 201 l0 185 41 -39 c93 -91 153 -221 164 -357 19 -216 -114 -452
-309 -548 -44 -22 -68 -40 -71 -54 -3 -12 10 -379 28 -816 21 -495 30 -812 25
-840 -31 -168 -263 -239 -399 -122 -61 52 -79 99 -79 207 0 50 14 418 31 819
17 401 28 740 25 752 -4 15 -24 32 -59 49 -202 102 -319 287 -319 505 1 156
46 278 144 385 l53 58 5 -192 c4 -156 8 -194 20 -201z"/>
<path d="M2365 4763 c-188 -25 -389 -168 -478 -339 -54 -106 -48 -154 19 -154
31 0 35 5 76 83 90 175 273 297 445 297 48 0 83 26 83 60 0 11 -9 29 -20 40
-20 20 -50 23 -125 13z"/>
<path d="M3365 4203 c-33 -9 -45 -24 -45 -58 0 -50 15 -56 122 -49 124 9 186
-9 257 -72 71 -64 141 -219 141 -314 0 -62 57 -94 96 -55 19 19 24 35 24 77 0
179 -115 354 -286 435 -72 34 -84 37 -183 39 -58 2 -115 0 -126 -3z"/>
</g>
</svg>
