<svg id="svg" version="1.1" xmlns="http://www.w3.org/2000/svg" xmlns:xlink="http://www.w3.org/1999/xlink" width="400" height="399.592252803262" viewBox="0, 0, 400,399.592252803262"><g id="svgg"><path id="path0" d="M207.592 0.430 C 184.076 0.572,164.296 0.818,163.636 0.976 C 150.274 4.174,140.697 11.550,134.893 23.113 C 133.123 26.638,130.669 33.805,130.669 35.449 C 130.669 36.098,130.568 36.732,130.443 36.856 C 129.992 37.307,129.926 46.926,129.908 115.227 L 129.889 184.699 131.039 186.355 C 132.832 188.940,137.358 192.579,137.991 191.945 C 138.111 191.826,138.442 191.873,138.728 192.049 C 141.940 194.035,149.572 190.653,152.559 185.920 L 153.761 184.016 154.016 168.831 C 154.156 160.480,154.354 132.338,154.455 106.294 C 154.556 80.250,154.742 54.088,154.869 48.156 L 155.100 37.371 156.352 35.023 C 158.999 30.055,163.885 25.982,167.632 25.618 C 171.625 25.231,192.271 25.123,268.531 25.093 C 356.896 25.058,357.712 25.068,360.839 26.306 C 367.134 28.797,373.459 36.164,373.823 41.426 C 373.886 42.341,374.061 43.289,374.210 43.531 C 374.360 43.774,374.484 46.171,374.486 48.859 C 374.496 60.721,374.503 204.396,374.494 215.243 C 374.488 223.149,374.342 227.377,374.069 227.546 C 373.840 227.688,373.745 228.291,373.858 228.887 C 374.437 231.939,367.759 240.691,362.749 243.448 C 360.392 244.745,353.993 244.925,301.299 245.175 C 244.947 245.442,219.623 245.794,215.998 246.360 C 212.004 246.984,207.533 252.782,207.376 257.542 C 207.255 261.196,208.309 263.511,211.665 266.969 L 213.833 269.202 255.468 269.566 C 341.361 270.317,361.846 269.951,368.227 267.549 C 382.120 262.319,393.087 250.933,397.247 237.420 C 399.375 230.507,399.374 230.538,399.381 137.263 C 399.389 33.530,399.482 36.011,395.231 27.389 C 388.270 13.268,374.947 2.873,361.638 1.179 C 353.332 0.122,300.641 -0.134,207.592 0.430 M266.840 52.084 C 266.127 52.269,263.968 52.359,262.042 52.284 C 260.117 52.209,258.541 52.245,258.541 52.365 C 258.541 52.484,257.761 52.790,256.807 53.045 C 254.661 53.619,251.404 56.464,250.332 58.700 C 249.902 59.597,249.405 60.333,249.227 60.335 C 249.049 60.338,249.015 60.519,249.151 60.739 C 249.287 60.959,249.268 61.348,249.110 61.604 C 247.799 63.726,249.721 70.300,252.450 73.029 C 255.454 76.034,255.116 75.995,280.852 76.330 C 296.150 76.530,303.904 76.771,304.188 77.055 C 304.490 77.357,276.834 105.303,209.533 172.707 C 82.083 300.349,54.329 328.303,53.378 329.990 C 52.919 330.805,52.438 338.462,52.847 338.462 C 53.012 338.462,53.147 338.738,53.147 339.077 C 53.147 344.625,63.783 349.425,68.731 346.109 C 73.202 343.114,88.285 328.316,172.394 244.411 C 304.859 112.268,322.197 95.065,322.557 95.424 C 322.783 95.651,323.077 104.842,323.276 117.933 C 323.461 130.103,323.718 140.687,323.847 141.453 C 324.990 148.223,333.324 152.422,339.838 149.510 C 343.610 147.825,346.853 144.475,346.853 142.264 C 346.853 141.675,346.956 141.089,347.082 140.964 C 347.645 140.400,347.938 65.471,347.389 62.338 C 346.622 57.960,343.019 54.093,338.285 52.565 C 336.422 51.963,269.056 51.510,266.840 52.084 M39.372 207.315 C 39.304 207.382,37.386 207.505,35.109 207.587 C 32.832 207.670,30.699 207.823,30.370 207.929 C 30.040 208.034,28.871 208.329,27.772 208.583 C 16.524 211.183,5.229 222.532,1.515 234.965 C -0.278 240.970,-0.409 365.220,1.371 371.763 C 4.772 384.261,16.941 395.999,28.777 398.197 C 37.866 399.886,158.617 399.879,165.035 398.189 C 174.898 395.593,183.824 388.440,188.472 379.407 C 192.636 371.316,192.531 372.669,192.602 326.455 L 192.663 286.677 190.891 284.297 C 188.619 281.247,187.181 279.916,185.314 279.136 C 183.696 278.460,179.021 277.694,179.021 278.105 C 179.021 278.243,178.246 278.563,177.298 278.817 C 174.757 279.496,171.825 281.682,170.168 284.131 C 168.267 286.940,168.184 288.193,167.974 317.260 C 167.766 346.155,167.552 360.867,167.299 363.836 C 167.186 365.155,167.072 366.586,167.045 367.016 C 166.921 368.988,164.605 371.392,161.039 373.249 C 158.679 374.478,155.230 374.581,118.681 374.512 C 103.187 374.483,79.242 374.461,65.470 374.462 C 48.684 374.464,40.347 374.329,40.176 374.052 C 40.015 373.792,38.844 373.731,37.000 373.887 C 35.069 374.050,33.989 373.986,33.810 373.698 C 33.662 373.458,33.293 373.357,32.990 373.473 C 31.254 374.139,25.464 368.340,26.131 366.602 C 26.250 366.290,26.162 366.034,25.933 366.034 C 25.687 366.034,25.506 364.856,25.488 363.137 C 25.472 361.543,25.406 350.529,25.343 338.661 C 25.279 326.793,25.115 300.215,24.979 279.599 L 24.730 242.115 26.171 239.540 C 28.002 236.265,29.721 234.605,33.148 232.805 L 35.881 231.369 74.384 231.365 L 112.887 231.361 114.885 230.205 C 124.004 224.927,123.381 210.748,113.918 208.200 C 111.231 207.477,40.057 206.632,39.372 207.315 " stroke="none" fill="#040404" fill-rule="evenodd"></path><path id="path1" d="M175.338 0.295 C 176.499 0.376,178.297 0.375,179.334 0.293 C 180.371 0.211,179.421 0.145,177.223 0.146 C 175.025 0.147,174.177 0.214,175.338 0.295 M345.155 0.293 C 346.089 0.377,347.617 0.377,348.551 0.293 C 349.486 0.208,348.721 0.140,346.853 0.140 C 344.985 0.140,344.221 0.208,345.155 0.293 M356.748 0.682 C 357.245 0.778,357.964 0.774,358.346 0.674 C 358.728 0.574,358.322 0.496,357.443 0.500 C 356.563 0.505,356.251 0.587,356.748 0.682 M156.444 2.611 C 155.444 3.093,155.411 3.148,156.244 2.945 C 157.376 2.668,158.649 2.019,158.042 2.028 C 157.822 2.031,157.103 2.294,156.444 2.611 M370.063 2.950 C 370.470 3.324,376.024 5.983,376.024 5.804 C 376.024 5.581,370.607 2.797,370.173 2.797 C 370.021 2.797,369.972 2.866,370.063 2.950 M151.449 4.807 C 148.972 6.117,144.702 9.102,146.653 8.160 C 146.983 8.001,147.522 7.642,147.852 7.362 C 148.182 7.083,149.980 6.034,151.848 5.032 C 153.716 4.030,155.065 3.213,154.845 3.216 C 154.625 3.219,153.097 3.935,151.449 4.807 M380.074 8.515 C 380.434 8.789,381.489 9.637,382.419 10.400 C 384.683 12.258,385.670 12.803,384.623 11.618 C 383.658 10.526,380.246 7.987,379.767 8.005 C 379.576 8.012,379.715 8.241,380.074 8.515 M144.625 9.458 L 143.656 10.525 144.743 9.758 C 145.340 9.336,145.835 8.856,145.842 8.691 C 145.862 8.199,145.643 8.337,144.625 9.458 M139.366 14.506 C 137.676 16.197,135.276 19.925,135.643 20.292 C 135.891 20.539,136.830 19.365,136.605 19.089 C 136.556 19.030,136.954 18.508,137.489 17.930 C 138.733 16.585,141.175 13.187,140.897 13.187 C 140.781 13.187,140.092 13.781,139.366 14.506 M387.936 15.417 C 388.452 16.411,389.610 17.438,389.610 16.902 C 389.610 16.693,389.136 16.087,388.557 15.554 C 387.617 14.690,387.550 14.675,387.936 15.417 M390.039 17.782 C 390.039 18.002,390.481 18.721,391.021 19.381 C 391.562 20.040,392.004 20.400,392.004 20.180 C 392.004 19.960,391.562 19.241,391.021 18.581 C 390.481 17.922,390.039 17.562,390.039 17.782 M177.423 25.574 L 174.426 25.830 178.345 25.902 C 180.874 25.948,182.177 25.832,182.018 25.574 C 181.882 25.355,181.467 25.207,181.095 25.247 C 180.724 25.286,179.071 25.434,177.423 25.574 M246.853 25.474 C 262.293 25.532,287.557 25.532,302.997 25.474 C 318.437 25.417,305.804 25.369,274.925 25.369 C 244.046 25.369,231.414 25.417,246.853 25.474 M350.626 25.612 C 350.503 25.811,351.342 25.974,352.491 25.974 C 353.639 25.974,354.504 25.909,354.412 25.829 C 354.000 25.470,350.826 25.289,350.626 25.612 M164.036 27.282 C 163.157 27.771,161.538 29.055,160.440 30.133 C 158.282 32.252,158.947 31.920,161.838 29.436 C 162.827 28.587,164.266 27.558,165.035 27.150 C 165.804 26.742,166.254 26.405,166.034 26.400 C 165.814 26.396,164.915 26.792,164.036 27.282 M396.032 28.172 C 396.032 28.392,396.289 29.021,396.603 29.570 C 396.917 30.120,397.174 30.390,397.174 30.170 C 397.174 29.950,396.917 29.321,396.603 28.771 C 396.289 28.222,396.032 27.952,396.032 28.172 M364.635 29.042 C 367.348 31.679,369.626 33.565,369.089 32.731 C 368.722 32.161,367.750 31.161,366.929 30.507 C 365.375 29.272,363.907 28.334,364.635 29.042 M156.444 35.165 C 156.103 35.824,155.914 36.364,156.023 36.364 C 156.133 36.364,156.502 35.824,156.843 35.165 C 157.184 34.505,157.373 33.966,157.263 33.966 C 157.153 33.966,156.785 34.505,156.444 35.165 M129.579 39.161 C 129.579 40.150,129.657 40.554,129.753 40.060 C 129.848 39.565,129.848 38.756,129.753 38.262 C 129.657 37.767,129.579 38.172,129.579 39.161 M398.902 42.158 C 398.906 43.037,398.988 43.350,399.084 42.852 C 399.179 42.355,399.176 41.636,399.076 41.254 C 398.976 40.872,398.898 41.279,398.902 42.158 M373.666 48.076 C 373.641 49.530,373.776 50.305,374.026 50.150 C 374.489 49.864,374.489 48.198,374.026 46.753 C 373.783 45.993,373.697 46.310,373.666 48.076 M399.345 52.747 C 399.345 54.835,399.412 55.689,399.495 54.645 C 399.577 53.601,399.577 51.893,399.495 50.849 C 399.412 49.805,399.345 50.659,399.345 52.747 M129.244 59.141 C 129.244 64.525,129.300 66.728,129.369 64.036 C 129.439 61.344,129.439 56.938,129.369 54.246 C 129.300 51.553,129.244 53.756,129.244 59.141 M273.027 51.445 C 274.510 51.522,276.938 51.522,278.422 51.445 C 279.905 51.368,278.691 51.305,275.724 51.305 C 272.757 51.305,271.543 51.368,273.027 51.445 M318.998 51.446 C 320.490 51.523,322.828 51.522,324.192 51.444 C 325.557 51.366,324.336 51.303,321.479 51.304 C 318.621 51.305,317.505 51.368,318.998 51.446 M259.093 51.871 C 259.284 52.180,262.138 52.025,262.138 51.705 C 262.138 51.619,261.408 51.548,260.516 51.548 C 259.624 51.548,258.983 51.693,259.093 51.871 M335.365 51.824 C 335.749 51.924,336.379 51.924,336.763 51.824 C 337.148 51.723,336.833 51.641,336.064 51.641 C 335.295 51.641,334.980 51.723,335.365 51.824 M256.144 52.229 C 255.159 52.588,252.893 54.026,253.056 54.189 C 253.140 54.272,254.003 53.945,254.976 53.463 C 255.948 52.980,256.863 52.577,257.010 52.566 C 257.156 52.556,257.411 52.413,257.576 52.248 C 257.914 51.910,257.053 51.899,256.144 52.229 M339.864 52.754 C 340.002 52.977,340.283 53.056,340.487 52.930 C 340.692 52.804,340.859 52.878,340.859 53.096 C 340.859 53.314,341.222 53.608,341.665 53.748 C 342.109 53.889,342.999 54.569,343.644 55.259 C 344.781 56.476,345.872 56.570,344.873 55.366 C 343.598 53.830,339.070 51.468,339.864 52.754 M250.648 56.444 C 250.059 57.182,248.872 59.594,249.023 59.745 C 249.094 59.817,249.647 58.991,250.251 57.910 C 251.311 56.011,251.474 55.408,250.648 56.444 M345.654 57.343 C 345.654 57.672,345.812 57.942,346.005 57.942 C 346.199 57.942,346.582 58.487,346.858 59.154 C 347.134 59.820,347.439 60.287,347.534 60.191 C 347.732 59.994,346.140 56.743,345.846 56.743 C 345.741 56.743,345.654 57.013,345.654 57.343 M348.220 73.327 C 348.220 77.722,348.278 79.575,348.350 77.444 C 348.421 75.313,348.422 71.716,348.350 69.452 C 348.279 67.187,348.220 68.931,348.220 73.327 M248.951 69.405 C 248.951 70.929,253.556 75.327,255.544 75.702 L 256.743 75.929 255.544 75.476 C 253.607 74.744,251.832 73.219,250.343 71.009 C 249.578 69.872,248.951 69.150,248.951 69.405 M374.220 124.276 C 374.220 152.298,374.267 163.761,374.326 149.750 C 374.384 135.739,374.384 112.812,374.326 98.801 C 374.267 84.790,374.220 96.254,374.220 124.276 M264.027 76.612 C 264.736 76.700,265.995 76.702,266.824 76.615 C 267.653 76.529,267.073 76.457,265.534 76.455 C 263.996 76.453,263.318 76.524,264.027 76.612 M299.001 77.009 C 299.605 77.101,300.594 77.101,301.199 77.009 C 301.803 76.918,301.309 76.843,300.100 76.843 C 298.891 76.843,298.397 76.918,299.001 77.009 M300.539 80.125 C 298.912 81.770,297.748 83.117,297.951 83.117 C 298.155 83.117,299.661 81.768,301.299 80.120 C 302.936 78.472,304.100 77.125,303.886 77.128 C 303.672 77.130,302.165 78.479,300.539 80.125 M154.826 97.103 C 154.826 105.345,154.880 108.716,154.945 104.595 C 155.009 100.475,155.009 93.731,154.945 89.610 C 154.880 85.490,154.826 88.861,154.826 97.103 M206.617 174.421 C 161.026 220.018,123.811 257.411,123.917 257.517 C 124.082 257.682,279.230 102.608,287.106 94.406 C 296.527 84.595,280.646 100.383,206.617 174.421 M348.231 106.693 C 348.231 113.836,348.285 116.758,348.351 113.187 C 348.417 109.615,348.417 103.771,348.351 100.200 C 348.285 96.628,348.231 99.550,348.231 106.693 M319.558 98.223 C 318.087 99.706,316.883 101.058,316.883 101.228 C 316.883 101.398,318.171 100.269,319.746 98.719 C 321.320 97.169,322.524 95.817,322.421 95.714 C 322.318 95.611,321.030 96.740,319.558 98.223 M322.605 99.500 C 322.605 100.929,322.678 101.513,322.767 100.799 C 322.855 100.085,322.855 98.916,322.767 98.202 C 322.678 97.488,322.605 98.072,322.605 99.500 M399.787 123.077 C 399.787 134.835,399.838 139.645,399.900 133.766 C 399.962 127.887,399.962 118.267,399.900 112.388 C 399.838 106.508,399.787 111.319,399.787 123.077 M273.007 144.421 C 251.974 165.391,234.857 182.640,234.968 182.752 C 235.080 182.865,252.426 165.707,273.515 144.625 C 294.604 123.543,311.722 106.294,311.554 106.294 C 311.387 106.294,294.041 123.451,273.007 144.421 M323.005 134.266 C 323.005 135.694,323.078 136.279,323.166 135.564 C 323.255 134.850,323.255 133.681,323.166 132.967 C 323.078 132.253,323.005 132.837,323.005 134.266 M347.761 137.862 C 347.761 138.851,347.839 139.256,347.934 138.761 C 348.030 138.267,348.030 137.458,347.934 136.963 C 347.839 136.469,347.761 136.873,347.761 137.862 M345.005 146.179 C 343.879 147.429,342.171 148.854,341.209 149.345 C 340.247 149.837,339.740 150.241,340.082 150.244 C 341.589 150.258,347.253 145.472,347.253 144.184 C 347.253 143.694,347.215 143.728,345.005 146.179 M324.077 144.408 C 324.074 145.142,325.777 147.471,326.901 148.272 C 328.458 149.380,328.400 148.876,326.817 147.544 C 326.127 146.963,325.228 145.940,324.820 145.272 C 324.413 144.603,324.078 144.215,324.077 144.408 M154.338 171.229 L 154.242 184.016 153.145 185.644 C 151.235 188.480,150.393 189.368,148.256 190.806 C 145.769 192.480,146.126 192.696,148.691 191.069 C 150.492 189.928,152.143 188.074,153.780 185.358 C 154.641 183.930,154.655 183.669,154.545 171.172 L 154.434 158.442 154.338 171.229 M129.071 184.460 C 129.071 185.787,133.054 190.364,135.149 191.444 C 136.693 192.240,137.863 192.510,136.464 191.748 C 133.965 190.387,132.796 189.332,131.032 186.850 C 129.953 185.332,129.071 184.257,129.071 184.460 M56.444 206.893 C 62.982 206.954,73.681 206.954,80.220 206.893 C 86.758 206.831,81.409 206.781,68.332 206.781 C 55.255 206.781,49.905 206.831,56.444 206.893 M32.272 207.276 C 32.769 207.371,33.489 207.368,33.871 207.268 C 34.253 207.168,33.846 207.089,32.967 207.094 C 32.088 207.098,31.775 207.180,32.272 207.276 M109.590 207.268 C 109.975 207.369,110.604 207.369,110.989 207.268 C 111.374 207.168,111.059 207.086,110.290 207.086 C 109.520 207.086,109.206 207.168,109.590 207.268 M16.446 212.997 C 13.679 214.940,13.210 215.385,13.925 215.385 C 14.222 215.385,14.824 214.948,16.666 213.394 C 16.932 213.170,17.336 212.987,17.566 212.987 C 17.795 212.987,17.982 212.807,17.982 212.587 C 17.982 212.368,18.252 212.188,18.581 212.188 C 18.911 212.188,19.181 211.997,19.181 211.765 C 19.181 211.532,19.361 211.453,19.580 211.588 C 19.800 211.724,19.980 211.645,19.980 211.412 C 19.980 210.670,19.372 210.943,16.446 212.997 M119.279 212.034 C 119.698 212.668,120.376 213.879,120.787 214.724 C 121.198 215.569,121.642 216.153,121.774 216.021 C 122.175 215.621,120.271 211.975,119.366 211.410 L 118.518 210.880 119.279 212.034 M373.686 216.603 L 373.746 222.378 374.123 217.040 C 374.391 213.246,374.374 211.577,374.063 211.266 C 373.747 210.950,373.643 212.425,373.686 216.603 M202.379 215.085 L 200.799 216.783 202.498 215.204 C 204.077 213.735,204.379 213.387,204.077 213.387 C 204.012 213.387,203.248 214.151,202.379 215.085 M10.797 217.574 C 9.831 218.558,9.161 219.484,9.307 219.630 C 9.586 219.909,13.187 216.623,13.187 216.090 C 13.187 215.423,12.475 215.865,10.797 217.574 M198.697 218.350 C 197.877 219.101,197.295 219.776,197.404 219.848 C 197.513 219.921,198.288 219.306,199.126 218.482 C 201.033 216.607,200.708 216.507,198.697 218.350 M399.343 221.978 C 399.341 223.956,399.409 224.816,399.493 223.888 C 399.577 222.961,399.578 221.342,399.495 220.292 C 399.412 219.241,399.344 220.000,399.343 221.978 M148.452 268.627 C 122.078 294.943,100.679 316.474,100.899 316.474 C 101.346 316.473,196.853 221.057,196.578 220.887 C 196.482 220.828,174.825 242.311,148.452 268.627 M121.061 223.810 C 120.547 224.771,120.936 225.447,121.494 224.564 C 121.886 223.944,122.007 222.977,121.692 222.977 C 121.590 222.977,121.306 223.352,121.061 223.810 M4.595 226.174 C 4.254 226.833,4.065 227.373,4.175 227.373 C 4.285 227.373,4.654 226.833,4.995 226.174 C 5.336 225.514,5.525 224.975,5.415 224.975 C 5.305 224.975,4.936 225.514,4.595 226.174 M119.138 227.004 C 118.400 227.892,117.871 228.694,117.962 228.784 C 118.133 228.955,120.302 226.752,120.827 225.874 C 121.496 224.756,120.391 225.495,119.138 227.004 M2.862 229.588 C 2.193 231.057,2.320 231.370,3.044 230.035 C 3.382 229.411,3.584 228.826,3.493 228.734 C 3.401 228.643,3.118 229.027,2.862 229.588 M370.904 234.295 C 369.513 236.483,365.316 241.096,363.636 242.285 C 362.682 242.960,362.696 242.960,363.944 242.285 C 366.391 240.959,369.441 237.735,371.370 234.434 C 372.897 231.822,372.544 231.717,370.904 234.295 M29.149 236.064 L 27.772 237.562 29.271 236.185 C 30.666 234.904,30.953 234.565,30.648 234.565 C 30.581 234.565,29.907 235.240,29.149 236.064 M0.500 238.362 C 0.505 239.241,0.587 239.553,0.682 239.056 C 0.778 238.559,0.774 237.840,0.674 237.458 C 0.574 237.076,0.496 237.483,0.500 238.362 M27.006 238.419 C 26.626 239.411,27.045 239.546,27.554 238.596 C 27.800 238.137,27.833 237.762,27.629 237.762 C 27.425 237.762,27.145 238.058,27.006 238.419 M25.825 241.255 C 25.252 242.533,25.169 243.922,25.272 250.549 L 25.393 258.342 25.484 250.430 C 25.556 244.147,25.704 242.267,26.203 241.302 C 26.549 240.633,26.757 240.011,26.665 239.919 C 26.574 239.827,26.195 240.428,25.825 241.255 M394.819 244.523 C 394.281 245.821,391.686 249.866,389.863 252.249 C 389.232 253.072,388.828 253.746,388.964 253.746 C 389.713 253.746,395.961 243.980,395.504 243.523 C 395.399 243.417,395.090 243.867,394.819 244.523 M292.433 244.855 C 296.018 244.921,301.772 244.921,305.220 244.854 C 308.668 244.788,305.734 244.734,298.701 244.734 C 291.668 244.734,288.847 244.788,292.433 244.855 M241.459 245.252 C 243.162 245.327,245.949 245.327,247.652 245.252 C 249.356 245.177,247.962 245.116,244.555 245.116 C 241.149 245.116,239.755 245.177,241.459 245.252 M220.087 245.644 C 220.805 245.733,221.884 245.731,222.485 245.640 C 223.085 245.549,222.498 245.476,221.179 245.478 C 219.860 245.481,219.369 245.555,220.087 245.644 M211.722 247.652 C 209.861 249.325,206.979 253.525,207.018 254.508 C 207.034 254.913,207.178 254.811,207.412 254.226 C 208.080 252.562,210.296 249.579,212.148 247.852 C 214.394 245.757,214.023 245.584,211.722 247.652 M0.151 252.947 C 0.151 255.475,0.216 256.508,0.295 255.245 C 0.375 253.981,0.375 251.913,0.295 250.649 C 0.216 249.386,0.151 250.420,0.151 252.947 M385.814 256.543 C 384.732 257.642,384.026 258.541,384.246 258.541 C 384.466 258.541,385.531 257.642,386.613 256.543 C 387.696 255.445,388.402 254.545,388.182 254.545 C 387.962 254.545,386.897 255.445,385.814 256.543 M206.721 257.742 C 206.721 259.171,206.794 259.755,206.882 259.041 C 206.971 258.327,206.971 257.158,206.882 256.444 C 206.794 255.729,206.721 256.314,206.721 257.742 M382.224 259.898 C 381.698 260.424,381.192 260.779,381.100 260.687 C 381.008 260.595,380.702 260.799,380.420 261.139 C 380.137 261.479,380.010 261.861,380.137 261.988 C 380.437 262.289,383.082 260.270,383.369 259.520 C 383.690 258.683,383.315 258.807,382.224 259.898 M207.393 262.312 C 207.393 263.129,209.009 265.439,211.113 267.631 L 213.513 270.130 222.541 270.038 L 231.568 269.946 222.809 269.830 L 214.049 269.714 212.353 268.324 C 211.420 267.560,209.922 265.835,209.025 264.491 C 208.127 263.147,207.393 262.166,207.393 262.312 M369.630 267.532 C 369.081 267.847,368.811 268.104,369.031 268.104 C 369.251 268.104,369.880 267.847,370.430 267.532 C 370.979 267.218,371.249 266.961,371.029 266.961 C 370.809 266.961,370.180 267.218,369.630 267.532 M353.157 270.023 C 354.097 270.108,355.536 270.107,356.354 270.021 C 357.173 269.935,356.404 269.866,354.645 269.867 C 352.887 269.869,352.218 269.939,353.157 270.023 M87.335 294.105 C 76.578 304.862,67.865 313.752,67.972 313.860 C 68.080 313.967,76.263 305.925,86.157 295.989 C 102.658 279.417,107.435 274.509,107.040 274.535 C 106.959 274.541,98.092 283.347,87.335 294.105 M179.221 277.722 C 179.357 277.942,180.076 278.122,180.819 278.122 C 181.562 278.122,182.282 277.942,182.418 277.722 C 182.569 277.478,181.948 277.323,180.819 277.323 C 179.691 277.323,179.070 277.478,179.221 277.722 M177.023 278.122 C 177.023 278.342,177.293 278.521,177.622 278.521 C 177.952 278.521,178.222 278.342,178.222 278.122 C 178.222 277.902,177.952 277.722,177.622 277.722 C 177.293 277.722,177.023 277.902,177.023 278.122 M183.417 278.122 C 183.417 278.342,183.686 278.521,184.016 278.521 C 184.346 278.521,184.615 278.342,184.615 278.122 C 184.615 277.902,184.346 277.722,184.016 277.722 C 183.686 277.722,183.417 277.902,183.417 278.122 M174.936 278.744 C 173.744 279.391,169.740 282.960,169.960 283.180 C 170.035 283.255,170.847 282.624,171.763 281.778 C 172.680 280.932,174.148 279.916,175.026 279.520 C 175.905 279.124,176.623 278.647,176.623 278.461 C 176.623 277.988,176.198 278.059,174.936 278.744 M185.018 278.422 C 185.020 278.586,185.734 279.129,186.606 279.626 C 187.579 280.182,188.113 280.328,187.989 280.005 C 187.653 279.129,185.011 277.721,185.018 278.422 M190.464 283.017 C 191.209 284.252,193.007 286.605,193.007 286.346 C 193.007 285.965,190.629 282.517,190.367 282.517 C 190.255 282.517,190.298 282.742,190.464 283.017 M167.601 316.084 C 167.601 320.589,167.659 322.433,167.731 320.180 C 167.802 317.927,167.802 314.241,167.731 311.988 C 167.659 309.735,167.601 311.578,167.601 316.084 M57.791 324.123 C 54.215 327.511,52.288 329.670,52.839 329.670 C 52.905 329.670,55.112 327.512,57.742 324.875 C 63.575 319.027,63.602 318.616,57.791 324.123 M87.512 329.258 C 83.886 332.760,81.101 335.634,81.323 335.645 C 81.546 335.655,84.601 332.787,88.112 329.271 C 91.623 325.754,94.408 322.880,94.301 322.884 C 94.194 322.889,91.139 325.757,87.512 329.258 M25.347 335.392 C 25.236 335.681,25.304 339.772,25.499 344.483 L 25.852 353.047 25.913 343.956 C 25.970 335.514,25.871 334.026,25.347 335.392 M76.412 339.771 C 74.183 342.020,72.975 343.745,74.536 342.449 C 75.287 341.826,79.258 337.263,79.049 337.263 C 78.966 337.263,77.779 338.391,76.412 339.771 M52.904 341.092 C 53.038 341.439,53.147 341.799,53.147 341.891 C 53.147 341.983,53.349 342.058,53.595 342.058 C 53.925 342.058,53.926 341.916,53.599 341.522 C 53.354 341.227,53.272 340.867,53.417 340.722 C 53.561 340.578,53.451 340.460,53.171 340.460 C 52.871 340.460,52.761 340.719,52.904 341.092 M53.946 342.808 C 53.946 343.001,54.216 343.383,54.545 343.656 C 55.196 344.196,55.277 344.067,54.902 343.090 C 54.646 342.421,53.946 342.215,53.946 342.808 M71.435 344.444 C 70.717 345.097,70.321 345.636,70.555 345.643 C 70.788 345.649,71.496 345.115,72.128 344.456 C 73.609 342.910,73.130 342.901,71.435 344.444 M55.950 345.062 C 56.563 345.800,59.527 347.399,59.792 347.135 C 59.887 347.039,59.420 346.735,58.754 346.459 C 58.088 346.183,57.542 345.828,57.542 345.670 C 57.542 345.512,57.063 345.164,56.476 344.897 C 55.510 344.457,55.460 344.472,55.950 345.062 M68.387 346.866 C 67.868 347.299,67.624 347.652,67.844 347.652 C 68.063 347.652,68.668 347.299,69.186 346.866 C 69.705 346.434,69.950 346.081,69.730 346.081 C 69.510 346.081,68.906 346.434,68.387 346.866 M167.187 350.849 C 167.187 353.596,167.251 354.720,167.329 353.347 C 167.407 351.973,167.407 349.725,167.329 348.352 C 167.251 346.978,167.187 348.102,167.187 350.849 M0.151 354.046 C 0.151 356.573,0.216 357.607,0.295 356.344 C 0.375 355.080,0.375 353.012,0.295 351.748 C 0.216 350.485,0.151 351.518,0.151 354.046 M192.735 363.636 C 192.735 365.065,192.808 365.649,192.896 364.935 C 192.985 364.221,192.985 363.052,192.896 362.338 C 192.808 361.623,192.735 362.208,192.735 363.636 M25.823 363.137 C 26.199 364.706,26.374 364.758,26.374 363.303 C 26.374 362.607,26.190 362.038,25.966 362.038 C 25.725 362.038,25.666 362.485,25.823 363.137 M166.726 364.036 C 166.726 364.805,166.808 365.120,166.909 364.735 C 167.009 364.351,167.009 363.721,166.909 363.337 C 166.808 362.952,166.726 363.267,166.726 364.036 M0.492 368.831 C 0.492 369.600,0.575 369.915,0.675 369.530 C 0.776 369.146,0.776 368.516,0.675 368.132 C 0.575 367.747,0.492 368.062,0.492 368.831 M26.773 368.044 C 26.773 368.617,30.983 372.827,31.556 372.827 C 31.798 372.827,31.370 372.278,30.605 371.606 C 29.841 370.935,28.666 369.760,27.994 368.995 C 27.323 368.230,26.773 367.802,26.773 368.044 M164.635 369.779 C 163.648 370.915,163.512 371.199,164.172 370.745 C 165.115 370.098,166.436 368.470,166.175 368.275 C 166.097 368.217,165.405 368.894,164.635 369.779 M35.964 373.626 C 37.392 374.084,37.962 374.084,37.962 373.626 C 37.962 373.407,37.288 373.245,36.464 373.267 C 35.126 373.302,35.072 373.341,35.964 373.626 M53.347 374.048 C 61.266 374.485,67.055 374.476,67.333 374.026 C 67.495 373.763,64.257 373.650,57.866 373.694 C 48.939 373.756,48.573 373.785,53.347 374.048 M152.121 374.059 C 152.420 374.358,153.090 374.371,154.299 374.102 L 156.044 373.712 153.866 373.669 C 152.304 373.638,151.811 373.749,152.121 374.059 M187.937 381.330 C 186.115 384.315,185.223 385.395,181.531 389.083 C 178.849 391.762,178.569 392.146,180.003 391.178 C 182.824 389.275,189.411 381.146,189.411 379.569 C 189.411 378.984,189.257 379.167,187.937 381.330 M3.996 379.809 C 3.996 381.932,12.607 391.380,16.827 393.887 C 19.970 395.753,21.018 395.980,18.082 394.158 C 12.710 390.824,9.333 387.538,6.041 382.442 C 4.214 379.614,3.996 379.334,3.996 379.809 M32.468 399.077 C 32.852 399.177,33.482 399.177,33.866 399.077 C 34.251 398.976,33.936 398.894,33.167 398.894 C 32.398 398.894,32.083 398.976,32.468 399.077 M161.139 399.077 C 161.523 399.177,162.153 399.177,162.537 399.077 C 162.922 398.976,162.607 398.894,161.838 398.894 C 161.069 398.894,160.754 398.976,161.139 399.077 M39.851 399.489 C 40.561 399.577,41.819 399.579,42.648 399.492 C 43.478 399.406,42.897 399.334,41.359 399.332 C 39.820 399.330,39.142 399.401,39.851 399.489 M146.368 399.497 C 147.640 399.576,149.618 399.575,150.764 399.495 C 151.910 399.414,150.869 399.349,148.452 399.350 C 146.034 399.351,145.096 399.417,146.368 399.497 " stroke="none" fill="#bfbfbf" fill-rule="evenodd"></path><path id="path2" d="M204.496 0.300 C 212.902 0.360,226.658 0.360,235.065 0.300 C 243.472 0.239,236.593 0.190,219.780 0.190 C 202.967 0.190,196.089 0.239,204.496 0.300 M326.154 0.297 C 328.066 0.370,331.302 0.371,333.346 0.298 C 335.391 0.225,333.826 0.166,329.870 0.165 C 325.914 0.165,324.242 0.224,326.154 0.297 M370.829 3.796 C 371.379 4.110,372.008 4.367,372.228 4.367 C 372.448 4.367,372.178 4.110,371.628 3.796 C 371.079 3.482,370.450 3.225,370.230 3.225 C 370.010 3.225,370.280 3.482,370.829 3.796 M142.636 11.888 L 141.259 13.387 142.757 12.010 C 143.581 11.252,144.256 10.578,144.256 10.511 C 144.256 10.206,143.918 10.493,142.636 11.888 M385.814 13.986 C 386.897 15.085,387.872 15.984,387.982 15.984 C 388.092 15.984,387.296 15.085,386.214 13.986 C 385.131 12.887,384.156 11.988,384.046 11.988 C 383.936 11.988,384.732 12.887,385.814 13.986 M190.410 25.175 C 188.897 25.560,201.278 25.573,208.791 25.195 C 213.521 24.957,212.625 24.910,202.997 24.892 C 196.733 24.880,191.069 25.007,190.410 25.175 M338.462 25.197 C 343.258 25.618,347.657 25.606,346.653 25.175 C 346.214 24.986,343.427 24.847,340.460 24.865 C 335.210 24.898,335.156 24.907,338.462 25.197 M169.431 25.574 C 168.699 26.047,170.970 26.047,172.827 25.574 C 173.870 25.309,173.767 25.264,172.028 25.228 C 170.929 25.206,169.760 25.361,169.431 25.574 M355.045 25.574 C 356.228 26.083,357.630 26.083,356.843 25.574 C 356.513 25.361,355.794 25.197,355.245 25.209 C 354.330 25.229,354.313 25.260,355.045 25.574 M368.032 31.369 C 368.778 32.138,369.477 32.767,369.587 32.767 C 369.697 32.767,369.177 32.138,368.432 31.369 C 367.686 30.599,366.986 29.970,366.876 29.970 C 366.766 29.970,367.286 30.599,368.032 31.369 M130.316 35.432 C 130.291 35.689,130.153 36.228,130.011 36.631 C 129.810 37.199,129.864 37.260,130.248 36.906 C 130.521 36.654,130.658 36.115,130.553 35.707 C 130.448 35.299,130.342 35.175,130.316 35.432 M129.659 42.945 C 129.502 44.620,129.468 46.085,129.585 46.202 C 129.701 46.318,129.925 45.043,130.082 43.368 C 130.239 41.694,130.272 40.229,130.155 40.112 C 130.039 39.996,129.815 41.271,129.659 42.945 M373.632 43.633 C 373.644 44.636,374.413 45.462,374.419 44.479 C 374.423 43.998,374.246 43.492,374.026 43.357 C 373.806 43.221,373.629 43.345,373.632 43.633 M154.814 57.742 C 154.815 62.358,154.873 64.191,154.944 61.816 C 155.015 59.442,155.014 55.666,154.943 53.425 C 154.872 51.184,154.814 53.127,154.814 57.742 M287.113 51.535 C 282.293 51.707,285.593 51.802,298.468 51.863 C 308.450 51.910,316.542 51.881,316.450 51.800 C 316.114 51.502,293.703 51.299,287.113 51.535 M263.337 51.948 C 261.549 52.226,261.552 52.228,263.936 52.248 C 265.255 52.259,266.783 52.124,267.333 51.948 C 268.633 51.532,266.015 51.532,263.337 51.948 M330.070 51.948 C 330.619 52.124,331.968 52.265,333.067 52.262 L 335.065 52.256 333.467 51.925 C 331.270 51.471,328.635 51.489,330.070 51.948 M374.094 55.944 C 374.100 57.592,374.239 60.470,374.403 62.338 C 374.688 65.582,374.703 65.484,374.735 60.140 C 374.754 57.063,374.614 54.186,374.426 53.746 C 374.195 53.209,374.086 53.928,374.094 55.944 M252.443 55.361 C 251.841 55.919,251.349 56.492,251.349 56.634 C 251.349 56.777,251.888 56.376,252.547 55.744 C 253.649 54.689,253.918 54.346,253.642 54.346 C 253.585 54.346,253.046 54.802,252.443 55.361 M129.337 95.171 C 128.958 149.988,129.008 183.900,129.471 184.615 C 129.722 185.004,129.860 162.598,129.864 120.979 C 129.867 85.649,129.810 56.743,129.736 56.743 C 129.663 56.743,129.483 74.036,129.337 95.171 M347.281 62.214 C 347.371 63.251,347.996 64.131,348.024 63.260 C 348.039 62.779,347.872 62.274,347.652 62.138 C 347.433 62.002,347.265 62.036,347.281 62.214 M248.666 64.535 C 248.669 65.634,248.746 66.036,248.838 65.429 C 248.930 64.822,248.928 63.923,248.833 63.431 C 248.738 62.940,248.663 63.437,248.666 64.535 M399.357 68.731 C 399.357 71.698,399.420 72.912,399.497 71.429 C 399.574 69.945,399.574 67.517,399.497 66.034 C 399.420 64.550,399.357 65.764,399.357 68.731 M248.769 67.632 C 248.919 68.127,249.205 68.707,249.406 68.922 C 249.607 69.137,249.570 68.732,249.322 68.023 C 248.816 66.571,248.349 66.241,248.769 67.632 M347.834 89.111 C 347.834 97.572,347.887 101.034,347.952 96.803 C 348.016 92.572,348.016 85.649,347.952 81.419 C 347.887 77.188,347.834 80.649,347.834 89.111 M288.012 76.620 C 289.386 76.698,291.633 76.698,293.007 76.620 C 294.381 76.542,293.257 76.478,290.509 76.478 C 287.762 76.478,286.638 76.542,288.012 76.620 M303.629 76.999 C 304.016 77.153,303.852 77.554,303.029 78.466 L 301.898 79.720 303.183 78.560 C 304.415 77.447,304.579 76.688,303.573 76.755 C 303.261 76.775,303.280 76.860,303.629 76.999 M288.904 93.007 L 284.715 97.303 289.011 93.114 C 291.374 90.810,293.307 88.877,293.307 88.818 C 293.307 88.530,292.794 89.017,288.904 93.007 M154.419 101.499 C 154.419 107.103,154.476 109.396,154.544 106.593 C 154.613 103.791,154.613 99.206,154.544 96.404 C 154.476 93.601,154.419 95.894,154.419 101.499 M320.265 97.203 L 318.282 99.301 320.380 97.318 C 322.329 95.475,322.661 95.105,322.363 95.105 C 322.299 95.105,321.355 96.049,320.265 97.203 M256.942 124.975 L 235.564 146.454 257.043 125.076 C 268.856 113.319,278.521 103.654,278.521 103.598 C 278.521 103.317,276.812 105.010,256.942 124.975 M323.036 111.489 C 323.036 114.675,323.098 115.979,323.174 114.386 C 323.250 112.792,323.250 110.185,323.174 108.591 C 323.098 106.998,323.036 108.302,323.036 111.489 M307.281 109.790 L 304.695 112.488 307.393 109.902 C 308.876 108.479,310.090 107.266,310.090 107.204 C 310.090 106.910,309.683 107.285,307.281 109.790 M283.514 133.566 L 271.129 146.054 283.616 133.669 C 295.222 122.159,296.284 121.079,296.002 121.079 C 295.945 121.079,290.326 126.698,283.514 133.566 M154.415 134.066 C 154.415 138.681,154.473 140.515,154.544 138.140 C 154.615 135.766,154.615 131.989,154.544 129.749 C 154.472 127.508,154.415 129.451,154.415 134.066 M347.556 130.270 C 347.393 131.479,347.280 133.457,347.305 134.665 L 347.350 136.863 347.709 134.466 C 347.906 133.147,348.019 131.169,347.960 130.070 L 347.852 128.072 347.556 130.270 M261.534 155.544 L 254.745 162.438 261.638 155.649 C 265.430 151.915,268.531 148.813,268.531 148.756 C 268.531 148.471,267.841 149.140,261.534 155.544 M333.826 150.699 C 334.463 150.871,335.632 150.868,336.423 150.692 C 337.655 150.418,337.488 150.373,335.265 150.379 C 333.284 150.384,332.943 150.460,333.826 150.699 M220.967 160.939 L 218.382 163.636 221.079 161.051 C 222.562 159.628,223.776 158.414,223.776 158.353 C 223.776 158.059,223.369 158.434,220.967 160.939 M153.845 175.905 C 153.736 180.674,153.785 184.438,153.954 184.268 C 154.124 184.098,154.213 180.196,154.153 175.596 L 154.045 167.233 153.845 175.905 M200.987 180.919 L 198.402 183.616 201.099 181.031 C 202.582 179.608,203.796 178.395,203.796 178.333 C 203.796 178.039,203.389 178.414,200.987 180.919 M374.327 188.012 C 373.912 198.563,373.989 206.381,374.479 203.428 C 374.676 202.237,374.790 196.573,374.732 190.841 L 374.625 180.420 374.327 188.012 M228.965 188.112 L 223.576 193.606 229.071 188.217 C 232.093 185.253,234.565 182.781,234.565 182.723 C 234.565 182.436,233.972 183.008,228.965 188.112 M149.650 189.289 C 148.551 190.304,148.012 190.941,148.452 190.705 C 149.212 190.296,152.201 187.395,151.827 187.428 C 151.729 187.437,150.749 188.275,149.650 189.289 M135.409 190.985 C 135.928 191.438,136.542 191.808,136.774 191.808 C 137.266 191.808,137.242 191.788,135.664 190.864 L 134.466 190.162 135.409 190.985 M145.776 191.620 C 145.660 191.736,144.776 191.986,143.811 192.175 C 142.417 192.449,142.303 192.525,143.257 192.546 C 144.366 192.569,147.389 191.514,146.420 191.441 C 146.182 191.423,145.892 191.504,145.776 191.620 M181.007 200.899 L 178.422 203.596 181.119 201.011 C 182.602 199.588,183.816 198.375,183.816 198.313 C 183.816 198.019,183.409 198.394,181.007 200.899 M399.363 205.594 C 399.363 209.111,399.424 210.496,399.498 208.672 C 399.573 206.849,399.572 203.972,399.497 202.279 C 399.423 200.586,399.362 202.078,399.363 205.594 M34.166 207.393 C 32.267 207.653,32.248 207.668,33.766 207.690 C 34.645 207.703,36.354 207.576,37.562 207.409 C 39.726 207.110,39.732 207.106,37.962 207.112 C 36.973 207.116,35.265 207.242,34.166 207.393 M56.444 207.292 C 62.982 207.354,73.681 207.354,80.220 207.292 C 86.758 207.231,81.409 207.180,68.332 207.180 C 55.255 207.180,49.905 207.231,56.444 207.292 M104.096 207.406 C 105.634 207.564,107.972 207.686,109.291 207.678 L 111.688 207.663 108.691 207.380 C 107.043 207.225,104.705 207.102,103.497 207.108 C 101.361 207.118,101.378 207.127,104.096 207.406 M28.180 208.037 C 26.866 208.354,25.648 208.757,25.473 208.932 C 25.299 209.107,26.325 208.956,27.754 208.596 C 29.184 208.236,30.477 207.818,30.628 207.667 C 30.779 207.516,30.828 207.408,30.736 207.426 C 30.644 207.444,29.494 207.719,28.180 208.037 M121.485 219.504 C 121.481 220.418,121.638 220.928,121.878 220.779 C 122.383 220.467,122.383 219.363,121.878 218.581 C 121.591 218.136,121.489 218.374,121.485 219.504 M373.930 224.775 C 373.499 227.113,373.538 228.020,374.050 227.508 C 374.283 227.275,374.418 226.205,374.350 225.131 L 374.226 223.177 373.930 224.775 M187.803 228.871 L 184.416 232.368 187.912 228.980 C 191.160 225.833,191.591 225.375,191.300 225.375 C 191.240 225.375,189.667 226.948,187.803 228.871 M113.720 230.869 C 113.555 231.034,95.858 231.261,74.392 231.373 L 35.365 231.576 74.149 231.672 C 107.736 231.755,113.038 231.690,113.710 231.182 C 114.136 230.859,114.381 230.589,114.252 230.582 C 114.124 230.575,113.884 230.704,113.720 230.869 M0.492 243.357 C 0.492 244.126,0.575 244.441,0.675 244.056 C 0.776 243.671,0.776 243.042,0.675 242.657 C 0.575 242.273,0.492 242.587,0.492 243.357 M167.826 248.851 L 163.237 253.546 167.932 248.958 C 170.514 246.434,172.627 244.321,172.627 244.262 C 172.627 243.974,172.088 244.490,167.826 248.851 M331.392 244.854 C 334.207 244.923,338.702 244.923,341.382 244.854 C 344.061 244.785,341.758 244.728,336.264 244.729 C 330.769 244.729,328.577 244.785,331.392 244.854 M263.037 245.253 C 265.180 245.325,268.686 245.325,270.829 245.253 C 272.972 245.181,271.219 245.122,266.933 245.122 C 262.647 245.122,260.894 245.181,263.037 245.253 M293.633 245.254 C 297.878 245.319,304.711 245.319,308.818 245.254 C 312.924 245.189,309.451 245.136,301.099 245.136 C 292.747 245.136,289.387 245.190,293.633 245.254 M228.472 245.644 C 229.186 245.732,230.355 245.732,231.069 245.644 C 231.783 245.555,231.199 245.483,229.770 245.483 C 228.342 245.483,227.757 245.555,228.472 245.644 M242.277 245.652 C 244.211 245.726,247.268 245.725,249.071 245.652 C 250.873 245.578,249.291 245.518,245.554 245.518 C 241.818 245.519,240.343 245.579,242.277 245.652 M220.480 246.043 C 221.194 246.132,222.363 246.132,223.077 246.043 C 223.791 245.955,223.207 245.882,221.778 245.882 C 220.350 245.882,219.765 245.955,220.480 246.043 M212.448 247.852 C 211.282 249.023,211.214 249.134,212.231 248.209 C 213.043 247.472,214.309 246.726,215.045 246.552 C 216.331 246.248,216.339 246.234,215.261 246.195 C 214.442 246.165,213.683 246.612,212.448 247.852 M385.802 256.244 L 383.417 258.741 385.914 256.356 C 387.288 255.044,388.412 253.920,388.412 253.859 C 388.412 253.563,388.017 253.924,385.802 256.244 M207.158 255.093 C 207.042 255.394,207.006 256.607,207.077 257.790 L 207.206 259.940 207.399 257.242 C 207.594 254.526,207.544 254.085,207.158 255.093 M147.652 268.931 C 144.361 272.228,141.758 274.925,141.868 274.925 C 141.978 274.925,144.761 272.228,148.052 268.931 C 151.343 265.634,153.946 262.937,153.836 262.937 C 153.726 262.937,150.944 265.634,147.652 268.931 M211.588 267.333 C 212.671 268.432,213.646 269.331,213.756 269.331 C 213.866 269.331,213.070 268.432,211.988 267.333 C 210.906 266.234,209.930 265.335,209.820 265.335 C 209.710 265.335,210.506 266.234,211.588 267.333 M0.159 271.728 C 0.159 274.915,0.221 276.219,0.297 274.625 C 0.373 273.032,0.373 270.425,0.297 268.831 C 0.221 267.238,0.159 268.541,0.159 271.728 M364.935 268.579 C 364.221 268.785,363.636 269.042,363.636 269.150 C 363.636 269.440,365.772 268.885,366.214 268.480 C 366.649 268.081,366.664 268.080,364.935 268.579 M109.284 273.027 L 104.895 277.522 109.391 273.134 C 111.863 270.720,113.886 268.697,113.886 268.638 C 113.886 268.350,113.360 268.851,109.284 273.027 M360.440 269.331 L 359.441 269.651 360.440 269.651 C 360.989 269.651,361.888 269.507,362.438 269.331 L 363.437 269.011 362.438 269.011 C 361.888 269.011,360.989 269.155,360.440 269.331 M238.162 269.751 C 251.459 269.897,270.250 270.006,279.920 269.995 L 297.502 269.975 279.321 269.709 C 269.321 269.562,250.529 269.452,237.562 269.465 L 213.986 269.488 238.162 269.751 M335.065 269.730 L 326.274 269.954 335.065 269.993 C 339.900 270.015,346.374 269.906,349.451 269.751 L 355.045 269.469 349.451 269.488 C 346.374 269.498,339.900 269.607,335.065 269.730 M24.900 291.109 C 24.886 302.537,25.004 313.147,25.162 314.685 C 25.534 318.315,25.554 300.083,25.196 283.117 C 24.937 270.822,24.926 271.130,24.900 291.109 M187.812 280.645 C 187.812 280.713,188.397 281.298,189.111 281.943 L 190.410 283.117 189.236 281.818 C 188.142 280.608,187.812 280.336,187.812 280.645 M122.275 294.406 L 109.690 307.093 122.378 294.508 C 134.169 282.812,135.245 281.718,134.963 281.718 C 134.906 281.718,129.197 287.428,122.275 294.406 M88.109 294.206 L 77.323 305.095 88.212 294.308 C 98.331 284.285,99.281 283.317,98.998 283.317 C 98.942 283.317,94.042 288.217,88.109 294.206 M192.607 321.199 L 192.807 356.244 192.909 321.501 C 192.965 302.392,192.876 286.622,192.710 286.456 C 192.543 286.290,192.497 301.924,192.607 321.199 M168.352 288.511 C 168.352 289.720,168.426 290.215,168.518 289.610 C 168.610 289.006,168.610 288.017,168.518 287.413 C 168.426 286.808,168.352 287.303,168.352 288.511 M167.983 295.704 C 167.983 298.232,168.048 299.266,168.127 298.002 C 168.207 296.738,168.207 294.670,168.127 293.407 C 168.048 292.143,167.983 293.177,167.983 295.704 M168.006 321.479 C 168.007 327.193,168.063 329.475,168.131 326.550 C 168.199 323.625,168.199 318.949,168.131 316.160 C 168.062 313.371,168.006 315.764,168.006 321.479 M57.328 325.375 L 55.345 327.473 57.443 325.490 C 58.596 324.399,59.540 323.455,59.540 323.392 C 59.540 323.093,59.170 323.425,57.328 325.375 M87.705 328.571 L 83.317 333.067 87.812 328.678 C 90.285 326.264,92.308 324.241,92.308 324.183 C 92.308 323.894,91.782 324.396,87.705 328.571 M0.159 335.664 C 0.159 338.851,0.221 340.155,0.297 338.561 C 0.373 336.968,0.373 334.361,0.297 332.767 C 0.221 331.174,0.159 332.478,0.159 335.664 M167.579 335.864 C 167.580 338.062,167.647 338.910,167.728 337.749 C 167.809 336.588,167.808 334.789,167.726 333.753 C 167.644 332.716,167.577 333.666,167.579 335.864 M52.135 334.175 C 52.009 334.675,52.085 335.529,52.302 336.073 C 52.648 336.941,52.700 336.828,52.722 335.165 C 52.749 333.125,52.503 332.710,52.135 334.175 M63.636 347.528 C 64.021 347.629,64.650 347.629,65.035 347.528 C 65.420 347.428,65.105 347.345,64.336 347.345 C 63.566 347.345,63.252 347.428,63.636 347.528 M167.585 353.846 C 167.586 356.484,167.651 357.510,167.729 356.128 C 167.807 354.746,167.806 352.588,167.727 351.333 C 167.648 350.078,167.584 351.209,167.585 353.846 M25.237 356.444 C 25.210 358.092,25.361 359.710,25.574 360.040 C 26.044 360.766,26.051 358.967,25.591 355.644 L 25.287 353.447 25.237 356.444 M167.134 360.240 C 167.138 361.119,167.220 361.431,167.316 360.934 C 167.411 360.437,167.408 359.718,167.308 359.336 C 167.208 358.954,167.129 359.361,167.134 360.240 M192.347 362.438 C 192.347 364.306,192.416 365.070,192.500 364.136 C 192.585 363.202,192.585 361.673,192.500 360.739 C 192.416 359.805,192.347 360.569,192.347 362.438 M0.500 363.836 C 0.505 364.715,0.587 365.028,0.682 364.531 C 0.778 364.034,0.774 363.314,0.674 362.932 C 0.574 362.550,0.496 362.957,0.500 363.836 M167.097 363.903 C 167.062 364.600,166.929 365.499,166.803 365.901 C 166.586 366.592,166.599 366.593,167.027 365.925 C 167.277 365.536,167.410 364.637,167.321 363.927 L 167.161 362.637 167.097 363.903 M166.333 368.132 C 165.904 369.306,165.915 369.356,166.446 368.655 C 166.954 367.984,167.254 366.833,166.921 366.833 C 166.859 366.833,166.595 367.418,166.333 368.132 M191.863 369.630 C 191.827 370.180,191.705 371.079,191.592 371.628 L 191.386 372.627 191.815 371.644 C 192.051 371.103,192.173 370.204,192.086 369.646 L 191.928 368.631 191.863 369.630 M40.160 374.026 C 40.296 374.247,41.871 374.403,43.680 374.376 C 46.630 374.330,46.775 374.294,45.155 374.006 C 42.536 373.540,39.866 373.551,40.160 374.026 M156.444 374.026 C 156.129 374.535,157.055 374.535,157.842 374.026 C 158.329 373.711,158.278 373.637,157.566 373.632 C 157.085 373.629,156.579 373.806,156.444 374.026 M88.711 374.446 C 93.273 374.849,145.628 374.863,147.652 374.463 C 148.531 374.289,134.865 374.146,117.283 374.146 C 99.700 374.146,86.843 374.281,88.711 374.446 M5.438 381.549 C 5.854 382.280,6.696 383.449,7.310 384.146 C 8.116 385.063,8.013 384.805,6.939 383.217 C 5.133 380.546,4.411 379.744,5.438 381.549 M10.989 388.412 C 12.071 389.510,13.047 390.410,13.157 390.410 C 13.267 390.410,12.471 389.510,11.389 388.412 C 10.306 387.313,9.331 386.414,9.221 386.414 C 9.111 386.414,9.907 387.313,10.989 388.412 M156.548 399.084 C 157.045 399.179,157.764 399.176,158.147 399.076 C 158.529 398.976,158.122 398.898,157.243 398.902 C 156.364 398.906,156.051 398.988,156.548 399.084 M53.626 399.498 C 55.538 399.571,58.775 399.571,60.819 399.499 C 62.863 399.426,61.299 399.366,57.343 399.366 C 53.387 399.365,51.714 399.425,53.626 399.498 M116.983 399.500 C 120.115 399.567,125.240 399.567,128.372 399.500 C 131.503 399.432,128.941 399.377,122.677 399.377 C 116.414 399.377,113.851 399.432,116.983 399.500 " stroke="none" fill="#595959" fill-rule="evenodd"></path><path id="path3" d="M187.317 0.283 C 187.814 0.378,188.534 0.375,188.916 0.275 C 189.298 0.175,188.891 0.096,188.012 0.101 C 187.133 0.105,186.820 0.187,187.317 0.283 M337.768 0.287 C 338.375 0.379,339.274 0.376,339.766 0.281 C 340.257 0.186,339.760 0.111,338.661 0.114 C 337.562 0.117,337.160 0.195,337.768 0.287 M215.285 25.064 C 215.999 25.153,217.168 25.153,217.882 25.064 C 218.596 24.976,218.012 24.903,216.583 24.903 C 215.155 24.903,214.570 24.976,215.285 25.064 M331.975 25.065 C 332.693 25.154,333.772 25.152,334.373 25.061 C 334.973 24.970,334.386 24.897,333.067 24.899 C 331.748 24.901,331.257 24.976,331.975 25.065 M174.326 25.450 C 174.710 25.551,175.340 25.551,175.724 25.450 C 176.109 25.350,175.794 25.268,175.025 25.268 C 174.256 25.268,173.941 25.350,174.326 25.450 M205.694 25.464 C 206.409 25.553,207.577 25.553,208.292 25.464 C 209.006 25.375,208.422 25.303,206.993 25.303 C 205.564 25.303,204.980 25.375,205.694 25.464 M338.766 25.457 C 339.263 25.553,339.982 25.549,340.364 25.449 C 340.746 25.349,340.340 25.271,339.461 25.276 C 338.581 25.280,338.269 25.362,338.766 25.457 M288.811 51.441 C 289.745 51.526,291.274 51.526,292.208 51.441 C 293.142 51.357,292.378 51.288,290.509 51.288 C 288.641 51.288,287.877 51.357,288.811 51.441 M305.409 51.445 C 306.681 51.524,308.659 51.523,309.805 51.443 C 310.951 51.363,309.910 51.297,307.493 51.298 C 305.075 51.299,304.137 51.365,305.409 51.445 M129.602 54.146 C 129.603 55.684,129.676 56.265,129.762 55.436 C 129.849 54.607,129.847 53.348,129.759 52.638 C 129.671 51.929,129.600 52.607,129.602 54.146 M277.828 51.835 C 278.435 51.927,279.334 51.925,279.826 51.830 C 280.317 51.735,279.820 51.660,278.721 51.663 C 277.622 51.666,277.220 51.743,277.828 51.835 M317.590 51.838 C 318.308 51.927,319.387 51.925,319.987 51.834 C 320.588 51.743,320.000 51.670,318.681 51.672 C 317.363 51.675,316.871 51.749,317.590 51.838 M374.127 61.339 C 374.131 62.218,374.213 62.530,374.309 62.033 C 374.404 61.536,374.401 60.817,374.301 60.435 C 374.201 60.053,374.122 60.460,374.127 61.339 M399.315 61.738 C 399.318 62.837,399.396 63.239,399.488 62.632 C 399.579 62.024,399.577 61.125,399.482 60.634 C 399.387 60.142,399.312 60.639,399.315 61.738 M374.580 70.330 C 374.580 73.077,374.643 74.201,374.721 72.827 C 374.799 71.454,374.799 69.206,374.721 67.832 C 374.643 66.459,374.580 67.582,374.580 70.330 M154.780 68.731 C 154.780 70.380,154.850 71.054,154.936 70.230 C 155.023 69.406,155.023 68.057,154.936 67.233 C 154.850 66.409,154.780 67.083,154.780 68.731 M347.780 71.528 C 347.780 72.957,347.853 73.541,347.941 72.827 C 348.030 72.113,348.030 70.944,347.941 70.230 C 347.853 69.515,347.780 70.100,347.780 71.528 M278.837 76.620 C 280.219 76.698,282.377 76.698,283.632 76.619 C 284.887 76.539,283.756 76.475,281.119 76.476 C 278.482 76.477,277.455 76.542,278.837 76.620 M293.321 88.056 L 289.140 92.507 293.621 88.119 C 296.085 85.705,298.102 83.682,298.102 83.623 C 298.102 83.129,296.917 84.228,293.321 88.056 M129.238 100.300 C 129.238 104.585,129.297 106.339,129.369 104.196 C 129.441 102.053,129.441 98.546,129.369 96.404 C 129.297 94.261,129.238 96.014,129.238 100.300 M311.881 105.586 L 307.892 109.673 312.088 105.692 C 314.396 103.502,316.359 101.663,316.450 101.605 C 316.542 101.546,316.449 101.499,316.243 101.499 C 316.037 101.499,314.074 103.338,311.881 105.586 M347.794 107.692 C 347.793 109.670,347.861 110.530,347.944 109.602 C 348.028 108.675,348.029 107.057,347.947 106.006 C 347.864 104.955,347.795 105.714,347.794 107.692 M323.034 122.278 C 323.034 125.245,323.097 126.459,323.173 124.975 C 323.250 123.492,323.250 121.064,323.173 119.580 C 323.097 118.097,323.034 119.311,323.034 122.278 M154.374 144.655 C 154.374 146.084,154.446 146.668,154.535 145.954 C 154.623 145.240,154.623 144.071,154.535 143.357 C 154.446 142.642,154.374 143.227,154.374 144.655 M229.562 152.348 L 225.974 156.044 229.670 152.456 C 233.103 149.123,233.549 148.651,233.258 148.651 C 233.199 148.651,231.536 150.315,229.562 152.348 M252.335 164.735 L 249.950 167.233 252.448 164.848 C 253.821 163.536,254.945 162.412,254.945 162.350 C 254.945 162.055,254.551 162.415,252.335 164.735 M210.789 171.029 C 208.159 173.666,206.096 175.824,206.206 175.824 C 206.316 175.824,208.558 173.666,211.189 171.029 C 213.819 168.392,215.882 166.234,215.772 166.234 C 215.662 166.234,213.420 168.392,210.789 171.029 M245.946 171.129 L 242.358 174.825 246.054 171.237 C 249.487 167.905,249.932 167.433,249.642 167.433 C 249.582 167.433,247.919 169.096,245.946 171.129 M374.581 175.624 C 374.582 178.482,374.645 179.598,374.722 178.105 C 374.799 176.613,374.799 174.275,374.721 172.910 C 374.643 171.546,374.580 172.767,374.581 175.624 M237.762 179.221 C 236.125 180.869,234.875 182.218,234.985 182.218 C 235.095 182.218,236.524 180.869,238.162 179.221 C 239.799 177.572,241.049 176.224,240.939 176.224 C 240.829 176.224,239.400 177.572,237.762 179.221 M229.570 187.812 C 226.940 190.450,224.878 192.607,224.988 192.607 C 225.097 192.607,227.340 190.450,229.970 187.812 C 232.601 185.175,234.663 183.017,234.553 183.017 C 234.443 183.017,232.201 185.175,229.570 187.812 M374.154 188.212 C 374.154 189.640,374.226 190.225,374.315 189.510 C 374.404 188.796,374.404 187.627,374.315 186.913 C 374.226 186.199,374.154 186.783,374.154 188.212 M190.809 191.009 C 188.179 193.646,186.116 195.804,186.226 195.804 C 186.336 195.804,188.578 193.646,191.209 191.009 C 193.839 188.372,195.902 186.214,195.792 186.214 C 195.682 186.214,193.440 188.372,190.809 191.009 M222.352 194.705 L 221.179 196.004 222.478 194.830 C 223.192 194.185,223.776 193.600,223.776 193.532 C 223.776 193.223,223.447 193.495,222.352 194.705 M209.785 207.293 L 203.596 213.586 209.890 207.397 C 215.737 201.648,216.365 200.999,216.079 200.999 C 216.021 200.999,213.189 203.831,209.785 207.293 M169.630 212.188 C 166.339 215.485,163.736 218.182,163.846 218.182 C 163.956 218.182,166.739 215.485,170.030 212.188 C 173.321 208.891,175.924 206.194,175.814 206.194 C 175.704 206.194,172.922 208.891,169.630 212.188 M399.302 213.187 C 399.306 214.066,399.388 214.379,399.483 213.881 C 399.579 213.384,399.575 212.665,399.475 212.283 C 399.375 211.901,399.297 212.308,399.302 213.187 M157.633 224.276 L 154.446 227.572 157.742 224.385 C 159.555 222.632,161.039 221.148,161.039 221.088 C 161.039 220.797,160.593 221.214,157.633 224.276 M372.527 232.268 C 372.098 233.442,372.108 233.492,372.639 232.791 C 373.148 232.120,373.448 230.969,373.115 230.969 C 373.053 230.969,372.789 231.553,372.527 232.268 M141.445 240.460 L 139.261 242.757 141.558 240.573 C 143.693 238.544,144.039 238.162,143.743 238.162 C 143.680 238.162,142.646 239.196,141.445 240.460 M322.369 244.844 C 323.078 244.932,324.337 244.934,325.166 244.847 C 325.995 244.761,325.415 244.688,323.876 244.687 C 322.338 244.685,321.659 244.756,322.369 244.844 M256.244 245.241 C 256.848 245.333,257.837 245.333,258.442 245.241 C 259.046 245.150,258.551 245.075,257.343 245.075 C 256.134 245.075,255.639 245.150,256.244 245.241 M24.942 262.937 C 24.942 267.223,25.001 268.976,25.073 266.833 C 25.145 264.690,25.145 261.184,25.073 259.041 C 25.001 256.898,24.942 258.651,24.942 262.937 M122.875 258.544 C 121.807 259.724,122.379 259.910,123.478 258.740 C 123.993 258.191,124.232 257.742,124.008 257.742 C 123.784 257.742,123.274 258.103,122.875 258.544 M0.114 264.336 C 0.117 265.435,0.195 265.837,0.287 265.229 C 0.379 264.622,0.376 263.723,0.281 263.231 C 0.186 262.740,0.111 263.237,0.114 264.336 M112.280 269.630 L 108.492 273.526 112.388 269.738 C 114.530 267.655,116.284 265.901,116.284 265.842 C 116.284 265.552,115.798 266.012,112.280 269.630 M355.549 269.613 C 356.046 269.709,356.765 269.705,357.148 269.605 C 357.530 269.505,357.123 269.427,356.244 269.431 C 355.365 269.436,355.052 269.518,355.549 269.613 M250.664 270.026 C 251.936 270.106,253.914 270.105,255.060 270.024 C 256.205 269.944,255.165 269.879,252.747 269.880 C 250.330 269.881,249.392 269.946,250.664 270.026 M345.754 270.006 C 346.139 270.106,346.768 270.106,347.153 270.006 C 347.537 269.905,347.223 269.823,346.454 269.823 C 345.684 269.823,345.370 269.905,345.754 270.006 M25.337 286.713 C 25.337 290.230,25.398 291.615,25.472 289.791 C 25.547 287.968,25.546 285.090,25.472 283.398 C 25.397 281.705,25.336 283.197,25.337 286.713 M167.941 289.710 C 167.941 290.699,168.019 291.104,168.114 290.609 C 168.209 290.115,168.209 289.306,168.114 288.811 C 168.019 288.317,167.941 288.721,167.941 289.710 M76.099 306.194 L 74.925 307.493 76.224 306.319 C 77.434 305.225,77.706 304.895,77.397 304.895 C 77.329 304.895,76.744 305.480,76.099 306.194 M167.933 309.890 C 167.937 310.769,168.019 311.082,168.115 310.585 C 168.210 310.088,168.207 309.368,168.107 308.986 C 168.007 308.604,167.929 309.011,167.933 309.890 M104.282 312.388 L 102.098 314.685 104.396 312.501 C 106.530 310.472,106.876 310.090,106.580 310.090 C 106.517 310.090,105.483 311.124,104.282 312.388 M99.071 317.546 L 98.102 318.608 99.401 317.670 C 100.751 316.695,100.924 316.484,100.369 316.484 C 100.188 316.484,99.603 316.962,99.071 317.546 M167.525 330.869 C 167.525 331.638,167.608 331.953,167.708 331.568 C 167.809 331.184,167.809 330.554,167.708 330.170 C 167.608 329.785,167.525 330.100,167.525 330.869 M81.119 335.065 C 80.373 335.834,79.933 336.451,80.141 336.435 C 80.502 336.407,82.971 333.666,82.635 333.666 C 82.547 333.666,81.864 334.296,81.119 335.065 M0.114 343.057 C 0.117 344.156,0.195 344.558,0.287 343.951 C 0.379 343.343,0.376 342.444,0.281 341.953 C 0.186 341.461,0.111 341.958,0.114 343.057 M167.533 347.852 C 167.538 348.731,167.620 349.044,167.715 348.547 C 167.811 348.050,167.807 347.330,167.707 346.948 C 167.607 346.566,167.529 346.973,167.533 347.852 M25.268 352.448 C 25.268 353.217,25.350 353.531,25.450 353.147 C 25.551 352.762,25.551 352.133,25.450 351.748 C 25.350 351.364,25.268 351.678,25.268 352.448 M192.708 357.443 C 192.713 358.322,192.794 358.634,192.890 358.137 C 192.986 357.640,192.982 356.921,192.882 356.539 C 192.782 356.157,192.704 356.563,192.708 357.443 M129.976 374.313 C 130.583 374.405,131.482 374.402,131.974 374.307 C 132.465 374.212,131.968 374.137,130.869 374.140 C 129.770 374.143,129.368 374.221,129.976 374.313 M134.771 399.488 C 135.378 399.579,136.277 399.577,136.769 399.482 C 137.260 399.387,136.763 399.312,135.664 399.315 C 134.565 399.318,134.163 399.396,134.771 399.488 " stroke="none" fill="#747474" fill-rule="evenodd"></path><path id="path4" d="M182.318 0.291 C 183.142 0.377,184.491 0.377,185.315 0.291 C 186.139 0.205,185.465 0.134,183.816 0.134 C 182.168 0.134,181.494 0.205,182.318 0.291 M341.159 0.282 C 341.653 0.377,342.463 0.377,342.957 0.282 C 343.452 0.187,343.047 0.109,342.058 0.109 C 341.069 0.109,340.664 0.187,341.159 0.282 M385.339 12.853 C 385.956 13.368,386.826 14.238,387.271 14.787 C 387.717 15.335,387.949 15.514,387.787 15.185 C 387.322 14.235,385.887 12.750,385.015 12.315 C 384.559 12.088,384.698 12.319,385.339 12.853 M214.186 25.156 C 211.439 25.276,238.232 25.375,273.726 25.375 C 309.221 25.375,336.374 25.262,334.066 25.124 C 328.969 24.819,221.217 24.848,214.186 25.156 M177.123 25.461 C 177.727 25.553,178.716 25.553,179.321 25.461 C 179.925 25.369,179.431 25.295,178.222 25.295 C 177.013 25.295,176.518 25.369,177.123 25.461 M172.727 25.850 C 173.112 25.950,173.741 25.950,174.126 25.850 C 174.510 25.749,174.196 25.667,173.427 25.667 C 172.657 25.667,172.343 25.749,172.727 25.850 M373.694 45.155 C 373.715 46.193,374.344 47.899,374.358 46.953 C 374.364 46.513,374.215 45.794,374.026 45.355 C 373.816 44.865,373.687 44.788,373.694 45.155 M282.418 51.441 C 283.352 51.526,284.880 51.526,285.814 51.441 C 286.748 51.357,285.984 51.288,284.116 51.288 C 282.248 51.288,281.484 51.357,282.418 51.441 M312.787 51.438 C 313.501 51.527,314.670 51.527,315.385 51.438 C 316.099 51.349,315.514 51.277,314.086 51.277 C 312.657 51.277,312.073 51.349,312.787 51.438 M272.438 51.842 C 273.378 51.926,274.817 51.925,275.635 51.839 C 276.453 51.753,275.684 51.684,273.926 51.685 C 272.168 51.687,271.498 51.757,272.438 51.842 M321.969 51.837 C 322.678 51.925,323.937 51.927,324.766 51.840 C 325.595 51.754,325.015 51.681,323.477 51.680 C 321.938 51.678,321.260 51.749,321.969 51.837 M399.315 58.142 C 399.318 59.241,399.396 59.643,399.488 59.035 C 399.579 58.428,399.577 57.529,399.482 57.037 C 399.387 56.546,399.312 57.043,399.315 58.142 M374.184 68.132 C 374.184 71.209,374.247 72.415,374.323 70.812 C 374.399 69.209,374.399 66.691,374.322 65.217 C 374.245 63.743,374.183 65.055,374.184 68.132 M347.767 67.333 C 347.770 68.432,347.847 68.834,347.939 68.226 C 348.031 67.619,348.028 66.720,347.934 66.228 C 347.839 65.737,347.764 66.234,347.767 67.333 M129.248 80.719 C 129.248 87.423,129.303 90.165,129.370 86.813 C 129.437 83.462,129.437 77.977,129.370 74.625 C 129.303 71.274,129.248 74.016,129.248 80.719 M154.803 76.923 C 154.804 80.000,154.866 81.206,154.942 79.603 C 155.018 78.000,155.018 75.482,154.941 74.008 C 154.865 72.535,154.802 73.846,154.803 76.923 M374.619 122.877 C 374.619 149.251,374.667 160.099,374.725 146.984 C 374.784 133.869,374.784 112.291,374.725 99.032 C 374.667 85.773,374.619 96.503,374.619 122.877 M270.244 76.619 C 271.516 76.699,273.494 76.698,274.640 76.618 C 275.786 76.537,274.745 76.472,272.328 76.473 C 269.910 76.474,268.973 76.540,270.244 76.619 M298.995 82.329 C 298.277 82.982,297.839 83.516,298.021 83.516 C 298.203 83.516,298.869 82.977,299.500 82.318 C 300.969 80.785,300.686 80.791,298.995 82.329 M348.215 87.512 C 348.215 91.139,348.275 92.622,348.349 90.809 C 348.423 88.996,348.423 86.029,348.349 84.216 C 348.275 82.403,348.215 83.886,348.215 87.512 M293.895 87.213 L 291.109 90.110 294.006 87.323 C 295.599 85.791,296.903 84.487,296.903 84.426 C 296.903 84.133,296.483 84.522,293.895 87.213 M286.701 94.805 L 284.316 97.303 286.813 94.918 C 288.187 93.606,289.311 92.482,289.311 92.420 C 289.311 92.125,288.916 92.485,286.701 94.805 M313.471 104.396 L 311.489 106.494 313.586 104.511 C 315.536 102.668,315.868 102.298,315.569 102.298 C 315.506 102.298,314.562 103.242,313.471 104.396 M305.283 112.188 L 302.697 114.885 305.395 112.299 C 306.878 110.877,308.092 109.663,308.092 109.602 C 308.092 109.308,307.685 109.682,305.283 112.188 M347.802 115.285 C 347.803 117.702,347.869 118.640,347.948 117.368 C 348.028 116.096,348.027 114.118,347.946 112.972 C 347.866 111.827,347.801 112.867,347.802 115.285 M323.001 129.670 C 323.003 130.989,323.078 131.480,323.167 130.762 C 323.256 130.044,323.254 128.965,323.163 128.364 C 323.071 127.764,322.999 128.352,323.001 129.670 M154.406 152.847 C 154.406 156.144,154.468 157.439,154.543 155.726 C 154.618 154.013,154.618 151.315,154.542 149.732 C 154.466 148.149,154.405 149.550,154.406 152.847 M374.184 180.420 C 374.184 183.497,374.247 184.702,374.323 183.099 C 374.399 181.496,374.399 178.979,374.322 177.505 C 374.245 176.031,374.183 177.343,374.184 180.420 M221.125 196.114 C 217.045 200.010,203.967 213.387,204.238 213.387 C 204.333 213.387,209.055 208.711,214.732 202.997 C 220.408 197.283,224.990 192.612,224.914 192.617 C 224.838 192.623,223.133 194.196,221.125 196.114 M201.583 215.407 C 200.493 216.518,199.870 217.307,200.200 217.161 C 200.779 216.904,204.072 213.387,203.733 213.387 C 203.641 213.387,202.674 214.296,201.583 215.407 M399.321 216.583 C 399.321 217.792,399.395 218.287,399.487 217.682 C 399.579 217.078,399.579 216.089,399.487 215.485 C 399.395 214.880,399.321 215.375,399.321 216.583 M374.103 218.426 C 374.061 219.769,373.941 221.747,373.837 222.821 L 373.648 224.775 374.055 222.826 C 374.278 221.755,374.398 219.777,374.321 218.431 L 374.180 215.984 374.103 218.426 M188.607 228.472 L 181.219 235.964 188.711 228.575 C 195.673 221.711,196.384 220.979,196.100 220.979 C 196.043 220.979,192.671 224.351,188.607 228.472 M149.051 232.767 C 148.080 233.756,147.376 234.565,147.486 234.565 C 147.596 234.565,148.480 233.756,149.451 232.767 C 150.421 231.778,151.125 230.969,151.016 230.969 C 150.906 230.969,150.022 231.778,149.051 232.767 M54.645 232.068 C 65.250 232.127,82.602 232.127,93.207 232.068 C 103.811 232.009,95.135 231.960,73.926 231.960 C 52.717 231.960,44.041 232.009,54.645 232.068 M25.024 241.973 C 24.887 242.331,24.812 245.530,24.857 249.084 L 24.938 255.544 25.156 248.551 C 25.392 240.990,25.393 241.013,25.024 241.973 M169.026 248.052 L 163.237 253.946 169.131 248.157 C 172.373 244.973,175.025 242.321,175.025 242.263 C 175.025 241.977,174.404 242.576,169.026 248.052 M313.803 244.852 C 315.295 244.929,317.633 244.929,318.998 244.851 C 320.362 244.773,319.141 244.710,316.284 244.711 C 313.427 244.711,312.310 244.775,313.803 244.852 M251.648 245.244 C 252.363 245.333,253.531 245.333,254.246 245.244 C 254.960 245.155,254.376 245.083,252.947 245.083 C 251.518 245.083,250.934 245.155,251.648 245.244 M224.081 245.637 C 224.578 245.733,225.297 245.729,225.679 245.629 C 226.061 245.529,225.654 245.451,224.775 245.455 C 223.896 245.460,223.584 245.542,224.081 245.637 M129.865 252.048 L 124.076 257.942 129.970 252.153 C 135.445 246.775,136.045 246.154,135.759 246.154 C 135.701 246.154,133.049 248.806,129.865 252.048 M0.131 259.940 C 0.133 261.479,0.205 262.059,0.292 261.230 C 0.378 260.401,0.377 259.142,0.288 258.433 C 0.200 257.723,0.129 258.402,0.131 259.940 M25.351 269.331 C 25.351 275.594,25.406 278.157,25.474 275.025 C 25.541 271.893,25.541 266.768,25.474 263.636 C 25.406 260.504,25.351 263.067,25.351 269.331 M120.080 261.546 C 118.981 262.522,118.269 263.324,118.498 263.328 C 118.727 263.333,119.709 262.527,120.679 261.538 C 122.920 259.255,122.655 259.258,120.080 261.546 M149.244 267.832 L 144.855 272.328 149.351 267.939 C 151.823 265.525,153.846 263.502,153.846 263.443 C 153.846 263.155,153.320 263.657,149.244 267.832 M112.460 269.047 C 109.618 271.967,106.753 274.993,106.094 275.769 C 105.435 276.546,106.365 275.640,108.162 273.756 C 109.959 271.871,112.989 268.846,114.897 267.033 C 116.804 265.220,118.199 263.736,117.996 263.736 C 117.793 263.736,115.302 266.126,112.460 269.047 M210.190 266.259 C 210.190 266.328,210.774 266.912,211.489 267.558 L 212.787 268.731 211.614 267.433 C 210.520 266.222,210.190 265.950,210.190 266.259 M368.531 267.566 C 367.817 267.879,367.233 268.226,367.233 268.338 C 367.233 268.546,370.036 267.460,370.376 267.120 C 370.716 266.780,369.850 266.990,368.531 267.566 M235.442 270.028 C 237.793 270.099,241.749 270.099,244.234 270.029 C 246.718 269.959,244.795 269.901,239.960 269.901 C 235.125 269.900,233.092 269.958,235.442 270.028 M348.551 270.016 C 349.156 270.108,350.145 270.108,350.749 270.016 C 351.354 269.925,350.859 269.850,349.650 269.850 C 348.442 269.850,347.947 269.925,348.551 270.016 M129.459 287.612 L 126.873 290.310 129.570 287.724 C 131.054 286.302,132.268 285.088,132.268 285.027 C 132.268 284.732,131.861 285.107,129.459 287.612 M92.296 289.610 L 89.710 292.308 92.408 289.722 C 94.913 287.320,95.288 286.913,94.993 286.913 C 94.932 286.913,93.718 288.127,92.296 289.610 M71.520 310.789 L 68.132 314.286 71.628 310.898 C 73.551 309.035,75.125 307.461,75.125 307.401 C 75.125 307.111,74.666 307.542,71.520 310.789 M63.783 318.083 C 62.988 318.963,62.338 319.806,62.338 319.956 C 62.338 320.349,64.732 318.016,65.183 317.183 C 65.785 316.073,65.340 316.359,63.783 318.083 M93.300 323.343 L 88.511 328.204 92.603 324.442 C 96.044 321.277,98.673 318.482,98.208 318.482 C 98.143 318.482,95.934 320.669,93.300 323.343 M167.567 326.873 C 167.567 328.521,167.637 329.196,167.724 328.372 C 167.810 327.547,167.810 326.199,167.724 325.375 C 167.637 324.550,167.567 325.225,167.567 326.873 M53.469 329.171 C 52.721 330.042,52.206 331.404,52.752 331.066 C 52.969 330.932,53.147 330.622,53.147 330.378 C 53.147 330.133,53.444 329.604,53.808 329.202 C 54.172 328.800,54.380 328.472,54.270 328.472 C 54.160 328.472,53.800 328.786,53.469 329.171 M25.327 346.653 C 25.328 349.291,25.393 350.318,25.471 348.935 C 25.549 347.553,25.549 345.395,25.470 344.140 C 25.391 342.885,25.327 344.016,25.327 346.653 M55.145 343.983 C 55.145 344.172,55.594 344.532,56.144 344.782 C 56.693 345.033,57.143 345.172,57.143 345.092 C 57.143 345.012,56.693 344.653,56.144 344.292 C 55.594 343.932,55.145 343.793,55.145 343.983 M0.128 347.253 C 0.128 348.681,0.200 349.266,0.289 348.551 C 0.378 347.837,0.378 346.668,0.289 345.954 C 0.200 345.240,0.128 345.824,0.128 347.253 M25.683 354.446 C 25.683 355.435,25.761 355.839,25.856 355.345 C 25.952 354.850,25.952 354.041,25.856 353.546 C 25.761 353.052,25.683 353.457,25.683 354.446 M167.126 356.843 C 167.126 357.612,167.208 357.927,167.308 357.542 C 167.409 357.158,167.409 356.528,167.308 356.144 C 167.208 355.759,167.126 356.074,167.126 356.843 M192.700 360.040 C 192.700 360.809,192.782 361.124,192.883 360.739 C 192.983 360.355,192.983 359.725,192.883 359.341 C 192.782 358.956,192.700 359.271,192.700 360.040 M25.581 363.470 C 25.584 363.891,25.769 364.505,25.992 364.835 C 26.289 365.273,26.326 365.111,26.130 364.236 C 25.801 362.766,25.572 362.448,25.581 363.470 M34.765 373.608 C 35.095 373.831,35.709 374.016,36.131 374.020 C 37.153 374.028,36.834 373.799,35.365 373.471 C 34.489 373.275,34.327 373.312,34.765 373.608 M46.953 374.055 C 48.981 374.360,57.415 374.547,57.110 374.280 C 57.018 374.200,54.246 374.050,50.949 373.945 C 47.576 373.838,45.829 373.887,46.953 374.055 M10.789 388.611 C 11.535 389.381,12.235 390.010,12.345 390.010 C 12.454 390.010,11.934 389.381,11.189 388.611 C 10.443 387.842,9.743 387.213,9.633 387.213 C 9.524 387.213,10.044 387.842,10.789 388.611 M181.600 388.911 L 180.020 390.609 181.718 389.030 C 183.298 387.561,183.600 387.213,183.298 387.213 C 183.233 387.213,182.468 387.977,181.600 388.911 M45.062 399.490 C 45.780 399.579,46.859 399.578,47.460 399.486 C 48.060 399.395,47.473 399.322,46.154 399.325 C 44.835 399.327,44.344 399.401,45.062 399.490 M139.173 399.495 C 140.223 399.578,141.842 399.577,142.769 399.493 C 143.697 399.409,142.837 399.341,140.859 399.343 C 138.881 399.344,138.122 399.412,139.173 399.495 " stroke="none" fill="#7c7c7c" fill-rule="evenodd"></path></g></svg>