<?xml version="1.0" standalone="no"?>
<!DOCTYPE svg PUBLIC "-//W3C//DTD SVG 20010904//EN"
 "http://www.w3.org/TR/2001/REC-SVG-20010904/DTD/svg10.dtd">
<svg version="1.0" xmlns="http://www.w3.org/2000/svg"
 width="508.000000pt" height="507.000000pt" viewBox="0 0 508.000000 507.000000"
 preserveAspectRatio="xMidYMid meet">
<metadata>
Created by potrace 1.16, written by Peter Selinger 2001-2019
</metadata>
<g transform="translate(0.000000,507.000000) scale(0.100000,-0.100000)"
fill="#000000" stroke="none">
<path d="M2335 5064 c-16 -2 -80 -11 -142 -20 -422 -57 -857 -246 -1193 -518
-227 -184 -457 -451 -590 -684 l-35 -62 -160 0 c-88 0 -170 -3 -183 -6 -22 -6
-22 -7 -20 -183 l3 -176 98 -3 c89 -2 98 -5 92 -20 -19 -49 -78 -281 -95 -376
-51 -279 -48 -635 6 -888 5 -24 2 -27 -30 -33 -19 -4 -40 -13 -46 -20 -7 -8
-9 -76 -8 -191 l3 -179 108 -26 c59 -15 109 -28 111 -30 7 -9 86 -182 86 -190
0 -5 -25 -49 -55 -97 -30 -49 -55 -96 -55 -106 0 -18 234 -256 252 -256 6 0
34 14 61 32 l49 32 37 -44 c341 -414 788 -702 1289 -831 375 -96 794 -105
1161 -23 654 146 1208 538 1575 1114 175 275 311 663 358 1020 20 157 15 500
-11 665 -74 485 -285 931 -610 1289 l-71 78 0 142 c0 97 -4 146 -12 154 -8 8
-64 12 -184 12 l-172 0 -88 56 c-214 135 -488 250 -734 309 -184 43 -304 57
-535 60 -126 2 -243 1 -260 -1z m445 -65 c328 -29 676 -138 955 -297 l100 -57
-634 -3 c-448 -1 -638 -5 -648 -13 -10 -9 -13 -49 -13 -165 l0 -154 -410 0
c-256 0 -428 -4 -460 -11 -68 -15 -138 -64 -175 -123 l-30 -49 -3 -179 -3
-178 -505 0 c-277 0 -504 4 -504 8 0 16 110 185 183 282 95 127 337 368 467
464 368 274 787 433 1260 479 81 8 313 6 420 -4z m1470 -1749 l0 -1330 -825 0
-825 0 0 1330 0 1330 825 0 825 0 0 -1330z m-1710 930 l0 -60 -134 0 c-114 0
-135 -2 -140 -16 -14 -36 11 -44 145 -44 l129 0 0 -35 0 -35 -444 0 c-513 0
-457 16 -448 -129 l5 -91 -67 0 -66 0 0 158 c0 170 11 213 61 258 60 54 51 53
522 54 l437 0 0 -60z m1950 -142 c314 -413 480 -909 480 -1434 0 -291 -33
-501 -121 -770 -104 -316 -274 -608 -508 -872 l-82 -92 -350 0 -350 0 31 39
c58 71 60 93 60 543 l0 408 323 0 c238 0 326 3 335 12 9 9 12 288 12 1192 l1
1181 40 -45 c22 -25 80 -98 129 -162z m-1950 -1137 c0 -929 2 -1029 16 -1035
9 -3 201 -6 427 -6 l412 0 -2 -222 c-1 -123 -2 -226 -2 -230 -1 -4 -378 -6
-838 -5 l-838 2 -3 1003 -2 1002 214 0 215 0 3 108 c2 59 1 139 -2 177 l-5 70
-212 3 -213 2 0 80 0 80 415 0 415 0 0 -1029z m-2100 689 l0 -120 -185 0 -185
0 0 120 0 120 185 0 185 0 0 -120z m1640 0 l0 -120 -790 0 -790 0 0 120 0 120
790 0 790 0 0 -120z m-620 -545 c0 -201 -1 -365 -3 -365 -2 0 -23 7 -48 15
l-44 15 -27 122 c-16 66 -33 127 -39 134 -16 19 -352 20 -367 2 -5 -7 -22 -68
-37 -134 l-28 -121 -77 -32 c-42 -17 -79 -31 -83 -31 -4 0 -54 29 -110 65 -57
36 -108 65 -114 65 -14 0 -247 -236 -251 -254 -2 -7 27 -61 64 -120 l67 -108
-21 -46 c-12 -26 -28 -63 -35 -82 -13 -32 -20 -37 -67 -48 -29 -7 -55 -11 -57
-9 -1 2 -11 51 -20 108 -25 153 -25 603 0 749 25 144 84 374 109 423 8 16 47
17 598 17 l590 0 0 -365z m188 -659 c1 -733 5 -1023 13 -1033 9 -11 166 -13
889 -13 483 0 885 3 894 6 14 5 16 38 16 260 l0 254 65 0 66 0 -3 -427 -3
-428 -32 -47 c-20 -29 -49 -54 -76 -67 -44 -21 -46 -21 -934 -19 l-889 3 -41
27 c-26 17 -50 45 -67 79 l-26 53 0 1188 0 1189 63 -3 62 -3 3 -1019z m-387
499 c4 -16 17 -73 29 -127 20 -89 23 -97 48 -103 15 -4 48 -16 75 -27 l47 -20
0 -199 c0 -110 -3 -199 -6 -199 -3 0 -24 15 -47 34 -184 149 -433 141 -606
-20 -97 -89 -143 -197 -142 -334 1 -102 29 -192 86 -269 154 -209 445 -249
651 -90 28 21 54 39 58 39 3 0 5 -89 4 -197 l-3 -198 -72 -29 -72 -29 -26
-109 c-14 -60 -25 -115 -25 -123 0 -13 -21 -15 -142 -13 l-141 3 -27 117 c-15
65 -28 120 -31 122 -12 10 -177 79 -199 83 -18 3 -50 -12 -119 -57 -51 -33
-97 -62 -101 -63 -10 -3 -179 152 -191 176 -8 14 2 38 52 120 34 56 64 105 65
108 2 3 -5 21 -15 40 -10 19 -30 66 -45 105 l-27 71 -57 13 c-31 6 -87 19
-125 27 l-67 15 0 138 0 138 98 22 c53 12 110 25 126 29 24 6 32 17 56 81 15
41 34 89 43 106 16 31 15 32 -35 115 -28 46 -58 96 -67 111 l-16 28 96 96 97
97 106 -67 c58 -36 110 -66 115 -66 5 0 35 13 67 29 33 15 76 34 96 40 20 7
41 17 46 24 5 7 19 59 32 117 12 58 27 111 33 118 7 9 44 12 140 10 l131 -3 7
-30z m-4 -623 c67 -26 143 -81 176 -130 l27 -38 0 -206 0 -206 -51 -56 c-88
-97 -216 -143 -347 -125 -316 43 -450 426 -233 662 44 47 134 101 197 117 56
14 171 5 231 -18z m-410 -1182 c18 0 24 -15 44 -104 24 -106 24 -106 -10 -106
-22 0 -43 15 -97 73 -38 40 -84 91 -102 114 l-32 41 31 20 32 20 61 -29 c34
-16 66 -29 73 -29z m616 -34 c6 -60 27 -108 65 -148 l26 -28 -117 0 -116 0 5
28 c33 161 38 175 74 188 54 19 57 18 63 -40z m2715 -245 c-7 -19 -168 -146
-281 -221 -283 -190 -597 -315 -947 -377 -128 -23 -174 -26 -385 -27 -259 -1
-365 10 -580 61 -338 79 -684 251 -964 480 -47 37 -86 74 -89 81 -3 10 328 12
1623 12 937 0 1625 -4 1623 -9z"/>
<path d="M3350 4281 c-39 -14 -67 -33 -97 -66 -46 -51 -63 -95 -63 -168 0
-154 154 -266 305 -223 68 20 121 66 151 131 90 191 -96 396 -296 326z m158
-70 c46 -23 67 -46 87 -94 21 -50 19 -93 -6 -145 -31 -63 -86 -97 -159 -97
-160 0 -237 184 -127 304 48 52 138 66 205 32z"/>
<path d="M3287 3766 c-85 -36 -135 -73 -183 -139 -55 -74 -95 -198 -79 -247 6
-19 18 -20 405 -20 439 0 412 -4 403 66 -17 145 -104 267 -233 328 -56 26 -79
31 -160 34 -83 2 -103 -1 -153 -22z m293 -70 c73 -37 144 -113 170 -182 38
-103 68 -94 -320 -94 l-340 0 0 28 c0 65 82 187 157 233 93 58 236 64 333 15z"/>
<path d="M2818 3100 c-74 -58 -55 -165 35 -199 46 -18 1118 -15 1160 3 52 22
72 51 72 108 0 43 -4 53 -33 79 l-32 29 -589 0 c-570 0 -589 -1 -613 -20z
m1202 -59 c16 -31 12 -59 -12 -75 -20 -14 -92 -16 -580 -16 -545 0 -558 0
-578 20 -22 22 -25 42 -10 71 10 18 28 19 590 19 562 0 580 -1 590 -19z"/>
<path d="M2828 2774 c-78 -42 -75 -160 6 -198 30 -14 97 -16 596 -16 616 0
608 -1 643 59 32 55 13 127 -43 156 -43 22 -1161 22 -1202 -1z m1186 -60 c21
-20 20 -53 -1 -76 -15 -17 -46 -18 -580 -18 -550 0 -563 0 -583 20 -24 24 -26
53 -4 74 14 14 80 16 584 16 504 0 570 -2 584 -16z"/>
<path d="M3210 2457 c-40 -20 -70 -74 -70 -125 0 -38 5 -50 39 -83 l39 -39
163 -1 c215 -1 239 0 271 17 84 44 86 175 4 225 -28 17 -53 19 -226 19 -136 0
-202 -4 -220 -13z m419 -65 c28 -22 31 -75 6 -102 -17 -19 -31 -20 -207 -20
-175 0 -189 1 -208 20 -26 26 -25 68 2 97 21 22 26 23 204 23 159 0 185 -2
203 -18z"/>
<path d="M2535 1303 c-52 -9 -66 -15 -95 -39 -43 -37 -63 -80 -63 -139 0 -101
64 -167 167 -173 50 -2 68 2 101 20 103 60 115 221 21 293 -33 25 -97 43 -131
38z m101 -97 c27 -27 34 -42 34 -72 0 -47 -31 -101 -66 -114 -52 -20 -94 -12
-130 24 -29 29 -34 41 -34 81 0 40 5 52 34 81 29 29 41 34 81 34 40 0 52 -5
81 -34z"/>
<path d="M1687 643 c-15 -15 -6 -43 16 -48 12 -3 191 -4 397 -3 l375 3 3 28 3
27 -394 0 c-216 0 -397 -3 -400 -7z"/>
<path d="M2626 484 c-16 -43 -3 -44 399 -44 328 0 384 2 395 15 10 12 10 18 0
30 -11 13 -68 15 -400 15 -349 0 -388 -2 -394 -16z"/>
</g>
</svg>
