<?xml version="1.0" standalone="no"?>
<!DOCTYPE svg PUBLIC "-//W3C//DTD SVG 20010904//EN"
 "http://www.w3.org/TR/2001/REC-SVG-20010904/DTD/svg10.dtd">
<svg version="1.0" xmlns="http://www.w3.org/2000/svg"
 width="520.000000pt" height="505.000000pt" viewBox="0 0 520.000000 505.000000"
 preserveAspectRatio="xMidYMid meet">
<metadata>
Created by potrace 1.16, written by Peter Selinger 2001-2019
</metadata>
<g transform="translate(0.000000,505.000000) scale(0.100000,-0.100000)"
fill="#000000" stroke="none">
<path d="M935 4811 c-69 -31 -105 -93 -105 -179 l0 -48 -76 -31 -75 -31 -26
29 c-53 59 -150 85 -215 56 -41 -18 -168 -145 -184 -183 -29 -70 -7 -159 55
-218 l29 -28 -31 -74 -31 -74 -50 0 c-55 0 -121 -25 -148 -56 -34 -39 -48 -91
-48 -184 0 -93 14 -145 48 -184 27 -31 93 -56 147 -56 l51 0 32 -77 32 -78
-40 -40 c-61 -63 -76 -128 -45 -201 23 -54 143 -169 192 -184 68 -21 128 -6
182 45 l47 44 77 -31 77 -32 0 -51 c0 -54 25 -120 56 -147 39 -34 91 -48 184
-48 93 0 145 14 184 48 31 27 56 93 56 147 l0 51 77 32 78 32 40 -40 c66 -64
134 -77 211 -39 50 24 150 128 170 176 30 70 11 145 -49 204 l-36 35 31 77 32
77 51 0 c54 0 120 25 147 56 34 39 48 91 48 184 0 93 -14 145 -48 184 -27 31
-93 56 -147 56 l-51 0 -32 77 -32 78 40 40 c90 92 82 182 -26 295 -114 120
-210 132 -310 40 l-42 -39 -76 32 -76 31 0 51 c0 54 -25 120 -56 147 -40 35
-91 48 -186 48 -69 0 -103 -5 -133 -19z m213 -253 c2 -99 4 -108 22 -108 40 0
173 -50 241 -90 l71 -42 73 72 c62 62 75 71 92 62 22 -12 93 -88 93 -99 0 -4
-32 -40 -72 -80 l-71 -72 32 -49 c39 -61 75 -149 91 -224 l13 -57 106 -3 106
-3 0 -75 0 -75 -106 -3 -107 -3 -6 -37 c-13 -71 -47 -160 -87 -227 l-41 -67
71 -73 c39 -40 71 -77 71 -81 0 -12 -92 -104 -104 -104 -6 0 -43 32 -83 72
l-72 71 -49 -32 c-61 -39 -149 -75 -224 -91 l-57 -13 -3 -106 -3 -106 -75 0
-75 0 -3 108 c-2 98 -4 107 -22 107 -41 0 -178 51 -244 91 l-68 41 -72 -71
c-39 -39 -76 -71 -81 -71 -13 0 -105 92 -105 104 0 6 32 43 72 83 l71 72 -32
49 c-39 61 -75 149 -91 224 l-13 57 -106 3 -106 3 0 75 0 75 108 3 c98 2 107
4 107 22 0 41 51 178 91 244 l41 68 -71 72 c-39 39 -71 76 -71 81 0 13 92 105
104 105 6 0 43 -32 82 -71 l72 -72 59 36 c70 42 138 70 216 87 l57 13 0 102
c0 56 3 105 7 109 4 4 39 5 78 4 l70 -3 3 -107z"/>
<path d="M943 4196 c-107 -35 -204 -120 -256 -225 -30 -62 -32 -71 -32 -181 0
-110 2 -119 32 -181 40 -81 130 -169 210 -207 53 -24 69 -27 173 -27 110 0
119 2 182 33 83 41 159 117 201 201 30 62 32 71 32 181 0 110 -2 119 -32 180
-41 84 -120 162 -203 203 -58 27 -77 31 -165 34 -65 2 -115 -2 -142 -11z m232
-165 c100 -45 155 -131 155 -240 -1 -153 -108 -261 -260 -261 -152 0 -260 108
-260 260 0 107 49 188 142 234 65 32 161 35 223 7z"/>
<path d="M3975 4811 c-69 -31 -105 -93 -105 -179 l0 -48 -76 -31 -75 -31 -26
29 c-34 37 -100 69 -145 69 -59 0 -99 -24 -180 -107 -67 -70 -77 -84 -83 -127
-10 -64 6 -113 54 -167 l38 -43 -30 -73 -31 -73 -50 0 c-55 0 -121 -25 -148
-56 -34 -39 -48 -91 -48 -184 0 -93 14 -145 48 -184 27 -31 93 -56 147 -56
l51 0 32 -77 32 -78 -40 -40 c-93 -95 -80 -195 40 -309 66 -63 111 -86 167
-86 50 1 83 17 131 62 l40 37 76 -32 76 -31 0 -51 c0 -54 25 -120 56 -147 39
-34 91 -48 184 -48 93 0 145 14 184 48 31 27 56 93 56 147 l0 51 77 32 78 32
40 -40 c92 -90 182 -82 295 26 120 114 133 222 37 315 l-36 35 31 77 32 77 51
0 c54 0 120 25 147 56 34 39 48 91 48 184 0 93 -14 145 -48 184 -27 31 -93 56
-147 56 l-51 0 -31 75 -31 76 35 37 c92 98 85 189 -23 302 -112 118 -213 131
-311 41 l-42 -39 -76 31 -75 31 0 51 c0 54 -25 120 -56 147 -40 35 -91 48
-186 48 -69 0 -103 -5 -133 -19z m213 -252 l3 -106 57 -13 c77 -17 145 -45
215 -87 l58 -35 57 53 c31 30 59 57 60 62 2 4 12 12 23 17 15 9 26 4 59 -26
72 -65 72 -67 -10 -150 l-73 -73 32 -49 c39 -61 75 -149 91 -224 l13 -57 106
-3 106 -3 0 -75 0 -75 -107 -3 c-99 -2 -108 -4 -108 -22 0 -40 -51 -178 -91
-243 l-41 -69 71 -73 c39 -40 71 -77 71 -81 0 -12 -92 -104 -104 -104 -6 0
-43 32 -82 71 l-72 72 -59 -36 c-70 -42 -138 -70 -215 -87 l-57 -13 -3 -106
-3 -106 -75 0 -75 0 -3 106 -3 106 -57 13 c-75 16 -163 52 -224 91 l-49 32
-72 -71 c-40 -40 -77 -72 -82 -72 -13 0 -105 92 -105 104 0 6 32 43 72 83 l71
72 -31 48 c-40 62 -60 110 -86 203 l-22 75 -104 5 -105 5 0 75 0 75 108 3 c98
2 107 4 107 22 0 40 51 178 91 243 l41 69 -71 73 c-39 40 -71 77 -71 81 0 12
92 104 104 104 6 0 43 -32 83 -72 l72 -71 49 32 c61 39 149 75 225 91 l57 13
0 102 c0 56 3 105 7 109 4 4 39 5 78 4 l70 -3 3 -106z"/>
<path d="M3983 4196 c-104 -34 -213 -131 -261 -233 -24 -53 -27 -69 -27 -173
0 -110 2 -119 32 -180 41 -83 120 -162 203 -203 61 -30 70 -32 180 -32 110 0
119 2 180 32 84 41 162 120 203 203 30 62 32 71 32 180 0 110 -2 119 -32 180
-41 83 -120 162 -202 203 -58 28 -75 32 -165 34 -65 2 -116 -2 -143 -11z m232
-165 c100 -45 155 -131 155 -240 -1 -153 -108 -261 -260 -261 -152 0 -260 108
-260 260 0 107 49 188 142 234 65 32 161 35 223 7z"/>
<path d="M2265 3673 c-3 -21 -15 -57 -25 -80 l-19 -43 369 0 369 0 -19 45
c-10 24 -22 60 -26 80 l-6 35 -318 0 -318 0 -7 -37z"/>
<path d="M30 2078 c0 -1039 3 -1370 12 -1402 16 -55 99 -138 154 -154 31 -9
289 -12 1058 -12 l1016 0 0 -80 0 -80 -195 0 c-195 0 -196 0 -220 -25 -16 -15
-25 -36 -25 -55 0 -19 9 -40 25 -55 l24 -25 711 0 711 0 24 25 c33 32 33 78 0
110 -24 25 -25 25 -220 25 l-195 0 0 80 0 80 1018 0 c1155 0 1078 -5 1155 80
24 26 49 66 55 88 9 29 12 378 12 1400 l0 1361 -42 -19 c-24 -10 -43 -23 -43
-27 1 -4 9 -35 19 -67 13 -42 17 -78 14 -121 -6 -70 -47 -171 -84 -206 l-24
-22 0 -1129 0 -1129 -25 -24 -24 -25 -2349 0 -2349 0 -27 25 -26 24 0 1129 0
1129 -24 22 c-13 12 -37 50 -52 84 -24 52 -29 75 -29 142 0 54 6 94 18 124 10
24 15 46 13 49 -3 3 -24 13 -46 23 l-40 18 0 -1361z m2720 -1648 l0 -80 -160
0 -160 0 0 80 0 80 160 0 160 0 0 -80z"/>
<path d="M2335 2992 c-126 -65 -446 -227 -710 -360 -264 -134 -488 -252 -497
-263 -44 -52 -16 -98 93 -154 49 -25 89 -49 89 -54 0 -4 -32 -23 -71 -42 -89
-42 -129 -78 -129 -114 0 -45 17 -63 111 -111 104 -54 104 -50 -5 -106 -32
-16 -69 -40 -82 -53 -29 -29 -31 -74 -6 -103 9 -11 233 -132 497 -270 264
-137 584 -304 712 -371 127 -66 241 -121 252 -121 12 0 207 97 434 216 226
119 529 278 672 352 338 177 337 176 359 206 16 20 17 31 10 58 -8 27 -25 42
-98 85 -48 28 -90 54 -93 57 -2 2 36 25 85 51 68 35 93 53 102 75 22 52 3 79
-93 136 -48 27 -89 53 -93 56 -3 4 30 25 74 47 45 22 90 51 101 63 26 27 27
69 4 96 -10 11 -155 90 -323 175 -168 85 -488 247 -712 361 -224 113 -418 206
-430 206 -13 0 -126 -54 -253 -118z m863 -359 c334 -168 609 -308 612 -311 3
-3 1 -6 -5 -8 -5 -2 -281 -146 -611 -319 l-601 -314 -599 312 c-330 172 -605
316 -613 321 -9 6 180 106 595 317 335 169 611 308 612 309 2 0 277 -138 610
-307z m615 -623 c4 -4 -153 -91 -350 -193 -490 -255 -629 -329 -760 -398
l-112 -59 -615 322 -615 322 57 33 c31 18 62 33 69 33 7 0 254 -126 549 -280
296 -154 547 -280 558 -280 12 1 264 128 561 285 l540 283 55 -30 c30 -17 59
-34 63 -38z m-53 -286 l61 -37 -38 -22 c-21 -12 -213 -113 -428 -225 -393
-204 -462 -240 -657 -344 l-107 -56 -353 184 c-194 102 -467 245 -607 318
-140 73 -254 138 -252 143 1 6 26 24 56 40 l55 30 117 -62 c611 -320 970 -503
987 -503 12 0 264 128 561 285 297 156 541 284 542 284 1 1 29 -15 63 -35z"/>
<path d="M750 1497 c-49 -16 -133 -102 -148 -153 -28 -96 -4 -182 68 -247 103
-93 228 -90 325 8 98 97 101 222 8 325 -65 72 -158 97 -253 67z m135 -172 c16
-15 25 -36 25 -55 0 -19 -9 -40 -25 -55 -15 -16 -36 -25 -55 -25 -19 0 -40 9
-55 25 -16 15 -25 36 -25 55 0 19 9 40 25 55 15 16 36 25 55 25 19 0 40 -9 55
-25z"/>
<path d="M4270 1497 c-49 -16 -133 -102 -148 -153 -28 -96 -4 -182 68 -247
105 -94 242 -89 333 13 90 100 90 220 0 320 -65 72 -158 97 -253 67z m135
-172 c50 -49 15 -135 -55 -135 -41 0 -80 39 -80 80 0 41 39 80 80 80 19 0 40
-9 55 -25z"/>
<path d="M375 1005 c-16 -15 -25 -36 -25 -55 0 -19 9 -40 25 -55 49 -50 135
-15 135 55 0 41 -39 80 -80 80 -19 0 -40 -9 -55 -25z"/>
<path d="M4695 1005 c-50 -49 -15 -135 55 -135 41 0 80 39 80 80 0 41 -39 80
-80 80 -19 0 -40 -9 -55 -25z"/>
</g>
</svg>
