<?xml version="1.0" standalone="no"?>
<!DOCTYPE svg PUBLIC "-//W3C//DTD SVG 20010904//EN"
 "http://www.w3.org/TR/2001/REC-SVG-20010904/DTD/svg10.dtd">
<svg version="1.0" xmlns="http://www.w3.org/2000/svg"
 width="999.000000pt" height="911.000000pt" viewBox="0 0 999.000000 911.000000"
 preserveAspectRatio="xMidYMid meet">
<metadata>
Created by potrace 1.16, written by Peter Selinger 2001-2019
</metadata>
<g transform="translate(0.000000,911.000000) scale(0.100000,-0.100000)"
fill="#000000" stroke="none">
<path d="M3120 6988 c-129 -54 -196 -113 -242 -216 -27 -59 -31 -81 -36 -188
-2 -67 -2 -133 2 -148 7 -27 7 -27 94 -24 l87 3 5 130 c4 114 8 135 28 168 31
49 76 82 134 96 68 16 5165 16 5237 -1 64 -14 118 -58 142 -115 18 -43 19 -96
19 -1649 l0 -1604 -1622 0 c-893 0 -1629 -4 -1636 -9 -8 -5 -12 -23 -10 -47
l3 -39 1633 -3 1632 -2 0 -168 c0 -140 -3 -173 -19 -207 -19 -42 -66 -89 -110
-108 -19 -9 -439 -13 -1581 -17 l-1555 -5 0 -85 0 -85 584 -3 c411 -1 588 -5
598 -13 18 -16 19 -479 1 -497 -9 -9 -160 -12 -618 -12 l-606 0 -19 -42 c-10
-24 -31 -62 -47 -85 -15 -23 -28 -44 -28 -47 0 -3 420 -6 934 -6 l935 0 27 23
c36 32 39 95 5 131 -24 25 -26 26 -200 28 l-176 3 -3 253 c-1 138 -1 253 0
254 2 2 404 5 893 8 l890 5 55 26 c86 41 145 100 188 187 l37 77 0 1875 0
1875 -26 55 c-55 115 -126 182 -233 221 -49 18 -136 19 -2711 18 -1840 0
-2668 -4 -2685 -11z"/>
<path d="M2223 6200 c-117 -17 -238 -112 -290 -227 -24 -53 -26 -72 -31 -225
l-5 -168 97 0 96 0 0 120 0 120 1418 -2 1417 -3 0 -1720 0 -1720 -880 -5 -879
-5 -7 -35 c-4 -19 -5 -38 -3 -42 3 -5 396 -8 875 -8 851 0 869 0 869 -19 0
-33 -48 -79 -106 -100 -54 -21 -72 -21 -865 -21 l-809 0 -11 -27 c-5 -15 -26
-53 -45 -84 -18 -31 -34 -59 -34 -63 0 -12 1777 -7 1807 5 172 70 256 174 274
342 6 47 8 832 7 1837 l-3 1755 -31 65 c-46 96 -102 153 -192 198 l-77 37
-1270 1 c-698 1 -1293 -2 -1322 -6z m2579 -199 c24 -10 54 -31 68 -45 21 -23
22 -29 10 -36 -21 -13 -2737 -13 -2745 0 -12 19 15 48 67 74 l52 26 1252 0
c1204 0 1254 -1 1296 -19z"/>
<path d="M1149 5361 c-109 -22 -218 -110 -272 -221 l-32 -65 0 -1400 c0 -1541
-4 -1439 63 -1543 51 -78 121 -129 221 -161 23 -8 269 -11 770 -11 694 0 739
1 787 19 126 46 209 135 253 272 8 26 11 409 11 1414 l0 1379 -21 60 c-39 111
-104 182 -217 234 l-57 27 -735 2 c-404 0 -751 -2 -771 -6z m155 -301 c38
-118 39 -120 75 -130 24 -8 206 -10 544 -8 469 3 510 4 521 20 7 10 25 57 40
105 45 145 39 136 97 131 60 -6 123 -46 154 -98 20 -35 20 -45 23 -1400 3
-1529 8 -1418 -70 -1484 -25 -22 -59 -39 -90 -45 -70 -15 -1325 -15 -1401 0
-68 14 -117 52 -146 114 l-21 45 0 1355 c0 1349 0 1355 21 1399 11 24 28 51
38 60 33 30 96 55 136 56 l40 0 39 -120z m1126 113 c0 -5 -11 -39 -24 -78
l-24 -70 -485 -3 -485 -2 -21 64 c-12 36 -21 72 -21 81 0 13 59 15 530 15 292
0 530 -3 530 -7z"/>
<path d="M1855 2583 c-35 -9 -82 -51 -100 -89 -20 -43 -15 -109 11 -149 59
-91 205 -86 263 9 41 65 16 171 -48 209 -31 18 -95 28 -126 20z"/>
<path d="M5762 3263 c-36 -7 -89 -65 -103 -111 -10 -35 -10 -50 0 -80 54 -153
256 -150 302 5 25 86 -40 178 -132 187 -24 2 -54 2 -67 -1z"/>
</g>
</svg>
