<?xml version="1.0" standalone="no"?>
<!DOCTYPE svg PUBLIC "-//W3C//DTD SVG 20010904//EN"
 "http://www.w3.org/TR/2001/REC-SVG-20010904/DTD/svg10.dtd">
<svg version="1.0" xmlns="http://www.w3.org/2000/svg"
 width="963.000000pt" height="970.000000pt" viewBox="0 0 963.000000 970.000000"
 preserveAspectRatio="xMidYMid meet">
<metadata>
Created by potrace 1.16, written by Peter Selinger 2001-2019
</metadata>
<g transform="translate(0.000000,970.000000) scale(0.100000,-0.100000)"
fill="#000000" stroke="none">
<path d="M3650 8899 c-219 -9 -473 -33 -632 -60 -210 -34 -296 -49 -333 -59
-16 -4 -57 -13 -90 -20 -33 -7 -71 -16 -85 -20 -14 -4 -63 -18 -110 -30 -81
-21 -362 -111 -405 -129 -11 -5 -41 -18 -67 -30 -26 -12 -51 -21 -54 -21 -16
0 -328 -163 -395 -206 -295 -189 -494 -408 -564 -618 -47 -142 -45 -46 -45
-2631 0 -2581 -1 -2503 45 -2640 138 -404 690 -783 1450 -995 167 -46 163 -45
318 -79 89 -20 104 -23 162 -32 33 -5 87 -14 120 -20 332 -57 867 -88 1200
-70 242 13 324 19 365 28 l30 6 -5 66 c-3 36 -11 103 -17 149 l-10 83 -92 -5
c-228 -14 -779 -18 -941 -7 -580 40 -1050 135 -1463 295 -439 171 -739 415
-822 668 -19 58 -20 87 -20 580 0 285 3 518 6 518 3 0 42 -29 87 -64 317 -247
678 -411 1227 -556 19 -5 56 -14 83 -19 26 -6 66 -15 90 -21 97 -22 321 -59
482 -79 308 -40 681 -55 980 -41 258 12 569 43 720 70 33 6 85 15 115 20 52 8
123 22 200 40 19 4 58 13 85 19 28 6 66 15 85 20 319 87 535 167 770 285 168
84 255 138 397 248 56 43 105 78 108 78 2 0 6 -179 7 -397 l3 -398 155 0 155
0 3 2330 c2 1691 0 2349 -8 2400 -32 200 -112 348 -280 516 -282 283 -730 507
-1320 662 -30 8 -82 20 -115 27 -33 7 -73 16 -90 20 -16 4 -59 13 -95 19 -36
7 -87 16 -115 21 -109 19 -304 45 -455 60 -114 11 -536 31 -603 29 -23 -1
-121 -5 -217 -10z m699 -319 c64 -6 168 -15 231 -21 319 -28 711 -106 995
-198 355 -114 640 -264 816 -429 172 -161 239 -291 239 -462 0 -149 -53 -267
-180 -403 -283 -303 -843 -534 -1565 -647 -166 -26 -196 -30 -305 -39 -63 -6
-167 -15 -231 -21 -150 -13 -706 -13 -879 0 -594 46 -1019 134 -1460 302 -249
95 -497 252 -638 403 -129 139 -182 255 -182 405 0 139 38 234 146 365 209
254 635 471 1189 604 295 71 550 110 915 140 152 12 774 13 909 1z m-3066
-1824 c290 -226 689 -414 1117 -526 47 -12 96 -26 110 -30 14 -4 52 -13 85
-20 33 -7 74 -16 90 -20 62 -16 319 -59 480 -79 308 -40 681 -55 980 -41 258
12 569 43 720 70 33 6 85 15 115 20 30 4 69 11 85 15 173 37 202 44 325 77
268 71 508 161 730 272 168 84 255 138 397 248 56 43 105 78 108 78 3 0 5
-233 5 -518 0 -493 -1 -522 -20 -580 -59 -180 -242 -369 -499 -516 -298 -171
-741 -310 -1226 -386 -166 -26 -196 -30 -305 -39 -63 -6 -167 -15 -231 -21
-150 -13 -706 -13 -879 0 -587 45 -1032 136 -1438 294 -439 171 -739 415 -822
668 -19 58 -20 87 -20 580 0 285 3 518 6 518 3 0 42 -29 87 -64z m0 -1600
c317 -247 678 -411 1227 -556 19 -5 56 -14 83 -19 26 -6 66 -15 90 -21 97 -22
321 -59 482 -79 308 -40 681 -55 980 -41 258 12 569 43 720 70 33 6 85 15 115
20 52 8 123 22 200 40 19 4 58 13 85 19 28 6 66 15 85 20 319 87 535 167 770
285 168 84 255 138 397 248 56 43 105 78 108 78 3 0 5 -233 5 -518 0 -493 -1
-522 -20 -580 -59 -180 -242 -369 -499 -516 -298 -171 -741 -310 -1226 -386
-166 -26 -196 -30 -305 -39 -63 -6 -167 -15 -231 -21 -150 -13 -706 -13 -879
0 -587 45 -1032 136 -1438 294 -439 171 -739 415 -822 668 -19 58 -20 87 -20
580 0 285 3 518 6 518 3 0 42 -29 87 -64z"/>
<path d="M1851 6019 c-120 -35 -201 -166 -171 -277 27 -97 84 -154 183 -181
39 -11 55 -11 95 -1 99 28 154 83 182 183 10 39 10 55 0 95 -27 96 -82 153
-176 180 -48 14 -66 14 -113 1z"/>
<path d="M1851 4419 c-120 -35 -201 -166 -171 -277 27 -97 84 -154 183 -181
39 -11 55 -11 95 -1 99 28 154 83 182 183 10 39 10 55 0 95 -27 96 -82 153
-176 180 -48 14 -66 14 -113 1z"/>
<path d="M1851 2819 c-120 -35 -201 -166 -171 -277 27 -97 84 -154 183 -181
39 -11 55 -11 95 -1 99 28 154 83 182 183 10 39 10 55 0 95 -27 96 -82 153
-176 180 -48 14 -66 14 -113 1z"/>
<path d="M5605 2503 c-152 -34 -226 -68 -324 -147 -70 -56 -146 -152 -185
-232 -102 -208 -72 -440 81 -636 122 -155 329 -258 519 -258 97 0 204 -56 248
-129 35 -60 46 -102 46 -188 0 -209 -115 -323 -328 -323 -78 0 -94 3 -152 33
-100 50 -149 129 -162 257 l-3 25 -155 0 -155 0 2 -39 c7 -107 51 -217 130
-323 103 -137 254 -231 421 -260 83 -15 96 -15 173 0 270 55 481 266 536 536
15 77 15 90 0 173 -36 206 -174 391 -362 486 -83 42 -163 63 -272 69 -75 5
-102 11 -155 37 -73 36 -127 99 -146 171 -16 58 -15 188 0 234 30 86 103 159
189 189 57 19 190 15 252 -8 106 -40 174 -128 186 -245 l6 -50 153 -3 c119 -2
154 0 158 11 9 24 -26 162 -61 236 -91 191 -269 333 -474 376 -70 15 -125 17
-166 8z"/>
<path d="M7205 2504 c-11 -3 -47 -12 -79 -20 -69 -17 -163 -63 -221 -107 -99
-76 -193 -201 -232 -307 -42 -112 -45 -169 -41 -720 4 -565 4 -566 59 -687 34
-73 123 -188 187 -239 120 -96 310 -163 427 -150 73 8 161 33 217 61 64 32 77
31 115 -8 64 -66 157 -68 221 -6 65 63 63 150 -5 224 -18 20 -33 42 -33 49 0
8 13 42 30 77 57 123 60 160 60 719 0 567 -3 596 -65 728 -85 181 -247 318
-432 367 -62 17 -176 27 -208 19z m197 -334 c78 -29 126 -74 160 -147 l28 -63
0 -566 c0 -360 -4 -564 -10 -562 -5 2 -58 50 -117 108 -122 119 -164 141 -231
119 -50 -16 -97 -62 -111 -110 -21 -69 -1 -107 121 -233 59 -61 108 -114 108
-118 0 -5 -39 -8 -87 -8 -79 0 -95 3 -153 33 -74 37 -129 100 -148 172 -17 65
-17 1144 0 1194 29 84 100 157 182 187 54 20 198 17 258 -6z"/>
<path d="M8345 2498 c-44 -15 -91 -64 -104 -107 -16 -54 -16 -1954 0 -2002 16
-47 63 -94 108 -108 27 -7 190 -11 528 -11 402 0 497 3 525 14 78 33 122 116
99 184 -8 20 -25 50 -40 65 -52 56 -58 57 -502 57 l-409 0 0 889 c0 968 2 928
-57 982 -26 25 -83 50 -107 48 -6 0 -24 -5 -41 -11z"/>
</g>
</svg>
