<svg id="Layer_1" data-name="Layer 1" xmlns="http://www.w3.org/2000/svg" viewBox="0 0 216 216"><defs><style>.cls-1{fill:#500000;}.cls-2{fill:#fff;}.cls-3{fill:#b1b3b6;}</style></defs><title>Artboard 1</title><rect class="cls-1" x="60" y="36.06" width="87.31" height="88"/><polygon class="cls-2" points="135.71 71.08 129.23 71.08 128.85 71.08 128.69 71.42 123.98 81.21 119.27 71.41 119.1 71.08 118.73 71.08 112.46 71.08 111.87 71.08 111.87 71.67 111.87 75.01 111.87 75.61 112.46 75.61 113.53 75.61 113.53 89.63 112.37 89.63 111.78 89.63 111.78 90.22 111.78 93.56 111.78 94.16 112.37 94.16 119.41 94.16 120.01 94.16 120.01 93.56 120.01 90.22 120.01 89.63 119.41 89.63 118.19 89.63 118.19 79.68 123.45 90.52 123.99 91.62 124.53 90.52 129.84 79.65 129.84 89.63 128.68 89.63 128.08 89.63 128.08 90.22 128.08 93.56 128.08 94.16 128.68 94.16 135.71 94.16 136.31 94.16 136.31 93.56 136.31 90.22 136.31 89.63 135.71 89.63 134.5 89.63 134.5 75.61 135.71 75.61 136.31 75.61 136.31 75.01 136.31 71.67 136.31 71.08 135.71 71.08"/><path class="cls-2" d="M94.85,89.61H93L86.88,75.53h1.18V71H78.27v4.54h1.35L73.53,89.61H71v4.53h8.88V89.61H78.58l1-2.34h7.32l1,2.34H86.56v4.53h8.88V89.61ZM85,82.74h-3.4l1.7-3.93Z"/><polygon class="cls-2" points="128.26 53.48 78.88 53.48 78.2 53.48 78.2 54.16 78.2 67.35 78.2 68.04 78.88 68.04 87.41 68.04 88.09 68.04 88.09 67.35 88.09 62.45 98.63 62.45 98.63 97.22 93.73 97.22 93.05 97.22 93.05 97.9 93.05 106.43 93.05 107.11 93.73 107.11 113.42 107.11 114.1 107.11 114.1 106.43 114.1 97.9 114.1 97.22 113.42 97.22 108.52 97.22 108.52 62.45 118.99 62.45 118.99 67.29 118.99 67.97 119.68 67.97 128.26 67.97 128.95 67.97 128.95 67.29 128.95 54.16 128.95 53.48 128.26 53.48"/><polygon class="cls-3" points="109.98 101.28 112.07 99.13 112.07 105.02 109.98 103.02 109.98 101.28"/><polygon class="cls-3" points="106.51 99.28 104.42 101.34 104.42 58.35 106.51 60.44 106.51 99.28"/><polygon class="cls-3" points="82.38 57.6 80.23 55.51 125.87 55.51 123.17 57.6 82.38 57.6"/><polygon class="cls-3" points="126.98 66.06 124.89 64.07 124.89 58.76 126.98 56.62 126.98 66.06"/><rect class="cls-1" x="191.29" y="164.88" width="0.01"/><path class="cls-1" d="M16.12,144.49v5.79h1.43a5.39,5.39,0,0,1,.73-2.81,2.57,2.57,0,0,1,1.48-1.11,9.08,9.08,0,0,1,2.12-.2H24V161.1a2.6,2.6,0,0,1-.54,1.87,3.67,3.67,0,0,1-2.42.54v1.38H31.3V163.5a5.35,5.35,0,0,1-1.94-.27,1.38,1.38,0,0,1-.84-.76,4.15,4.15,0,0,1-.18-1.38V146.16h2.59a6.24,6.24,0,0,1,1.7.21A2.65,2.65,0,0,1,34,147.49a6,6,0,0,1,.83,2.8h1.43v-5.79Z"/><path class="cls-1" d="M53.48,161.6a3.84,3.84,0,0,1-1.84,1.35,7.3,7.3,0,0,1-2,.26H48a6.52,6.52,0,0,1-1.69-.16,1.5,1.5,0,0,1-.86-.53,1.88,1.88,0,0,1-.33-.92q-.06-.55-.06-1.76V155h2.1a5.09,5.09,0,0,1,1.59.18,1.27,1.27,0,0,1,.76.71,4.86,4.86,0,0,1,.3,1.66h1.38v-6.78H49.78a5.76,5.76,0,0,1-.29,1.65,1.19,1.19,0,0,1-.74.72,5.05,5.05,0,0,1-1.59.19H45.09v-7.21h3.82a11.3,11.3,0,0,1,2.28.17,2.48,2.48,0,0,1,1.37.93,7,7,0,0,1,1.08,2.52H55l-.27-5.29H37.83v1.38a5.4,5.4,0,0,1,2,.28,1.38,1.38,0,0,1,.81.77,4.28,4.28,0,0,1,.17,1.36v12.81a2.6,2.6,0,0,1-.54,1.87,3.65,3.65,0,0,1-2.42.54v1.38H56l.17-6.7H54.74A7.08,7.08,0,0,1,53.48,161.6Z"/><path class="cls-1" d="M92.51,163.33a6.82,6.82,0,0,1-1.78.17v1.39h9.6V163.5a3.16,3.16,0,0,1-1.56-.32,2.3,2.3,0,0,1-.87-.92c-.21-.4-.54-1.16-1-2.28L90.7,144.11H89.27L83.4,159.5A16.87,16.87,0,0,1,82.25,162a3.27,3.27,0,0,1-1.12,1.2,2.51,2.51,0,0,1-.69.24,4.16,4.16,0,0,1-1-.27A4.4,4.4,0,0,1,78,162.1a27.42,27.42,0,0,1-1.83-2.23l-5-6.5,3.64-4.18c.79-.92,1.4-1.57,1.81-2a5,5,0,0,1,1.45-1,4.72,4.72,0,0,1,2-.37V144.5H71.64v1.38h.7a3.13,3.13,0,0,1,1.41.22.76.76,0,0,1,.37.71,1.18,1.18,0,0,1-.13.58c-.09.15-.28.42-.57.8L70.19,152l-2.84-3.67a4.75,4.75,0,0,1-.92-1.63.63.63,0,0,1,.43-.68,4.87,4.87,0,0,1,1.28-.13h.78v-1.38H57.8v1.38a6,6,0,0,1,1.87.23,2.88,2.88,0,0,1,1.16.74c.33.35.87,1,1.61,2l4.91,6.47-3.62,4.25a26.56,26.56,0,0,1-2.48,2.61,5.27,5.27,0,0,1-1.71,1.08,5.89,5.89,0,0,1-1.74.28v1.38h9V163.5a12,12,0,0,1-1.41-.06,1.75,1.75,0,0,1-.89-.34,1,1,0,0,1-.37-.83,3.59,3.59,0,0,1,1.11-1.94l3.17-3.7,3.3,4.35a3.55,3.55,0,0,1,.79,1.41.86.86,0,0,1-.62.91,4.59,4.59,0,0,1-1.41.2h-.95v1.39H86.72V163.5a5,5,0,0,1-1.63-.24,1.07,1.07,0,0,1-.69-1.14,5.31,5.31,0,0,1,.42-1.61l.49-1.32h6.61l1,2.41a2.54,2.54,0,0,1,.18.92A.76.76,0,0,1,92.51,163.33Zm-6.61-5.62,2.68-7.1,2.81,7.1Z"/><path class="cls-1" d="M114.14,162.76a6.89,6.89,0,0,0,1.2-2,5.42,5.42,0,0,0,.4-2,4.71,4.71,0,0,0-.84-2.82,7.59,7.59,0,0,0-2.11-1.93,39,39,0,0,0-3.45-1.81c-1.22-.56-2.1-1-2.64-1.3a4.32,4.32,0,0,1-1.32-1.09,2.37,2.37,0,0,1-.5-1.5,2.26,2.26,0,0,1,.8-1.8,3.12,3.12,0,0,1,2.12-.7q3.64,0,5.12,4.54h1.38v-5.57h-1.38a9.06,9.06,0,0,1-.48,1.75,6.79,6.79,0,0,0-2.2-1.72,5.89,5.89,0,0,0-2.66-.63,6.16,6.16,0,0,0-3.22.83,5.69,5.69,0,0,0-2.11,2.14,5.38,5.38,0,0,0-.72,2.64,4.9,4.9,0,0,0,.23,1.49,5.27,5.27,0,0,0,.82,1.55,8.28,8.28,0,0,0,1.76,1.69,17.5,17.5,0,0,0,3,1.72c.79.35,1.49.69,2.1,1a8.75,8.75,0,0,1,1.45.9,3.05,3.05,0,0,1,.81.95,2.84,2.84,0,0,1-.63,3.31,3.43,3.43,0,0,1-2.41.82,4.53,4.53,0,0,1-2.9-.93,6.51,6.51,0,0,1-1.83-2.23,13,13,0,0,1-1-2.76h-1.35v6.82h1.35a7.85,7.85,0,0,1,.6-2,6.94,6.94,0,0,0,2.66,2.06,7.78,7.78,0,0,0,3.15.69,6.4,6.4,0,0,0,2.83-.6A6.09,6.09,0,0,0,114.14,162.76Z"/><path class="cls-1" d="M144.43,162.26c-.21-.4-.54-1.16-1-2.28l-6.21-15.88H135.8l-5.88,15.39a16.8,16.8,0,0,1-1.15,2.49,3.28,3.28,0,0,1-1.12,1.2,3,3,0,0,1-1.43.31v1.39h7V163.5a5,5,0,0,1-1.63-.24,1.07,1.07,0,0,1-.7-1.14,5.3,5.3,0,0,1,.42-1.61l.5-1.32h6.61l1,2.41a2.55,2.55,0,0,1,.18.92.77.77,0,0,1-.56.82,6.87,6.87,0,0,1-1.78.17v1.39h9.6V163.5a3.15,3.15,0,0,1-1.57-.32A2.29,2.29,0,0,1,144.43,162.26Zm-12-4.56,2.67-7.1,2.81,7.1Z"/><path class="cls-1" d="M183.82,162.47a1.36,1.36,0,0,1-.8.77,5.22,5.22,0,0,1-1.94.26v1.39h10.21V163.5a5.28,5.28,0,0,1-2-.27,1.39,1.39,0,0,1-.83-.79,4.11,4.11,0,0,1-.18-1.34V148.29a2.6,2.6,0,0,1,.55-1.86,3.66,3.66,0,0,1,2.43-.55v-1.38H184l-6.78,14.39-6.77-14.39H163v1.38a5.13,5.13,0,0,1,2.05.29,1.25,1.25,0,0,1,.74.87,9,9,0,0,1,.14,1.86v11.55a13.15,13.15,0,0,1-.06,1.46,1.75,1.75,0,0,1-.33.87,1.62,1.62,0,0,1-.86.54,6,6,0,0,1-1.67.18v1.38h7.53V163.5a6.54,6.54,0,0,1-1.67-.17,1.66,1.66,0,0,1-.88-.54,1.76,1.76,0,0,1-.34-.87,11.6,11.6,0,0,1-.07-1.47V148.31l7.8,16.57h.92L184,148.31v12.78A4,4,0,0,1,183.82,162.47Z"/><path class="cls-1" d="M24.92,171.94a3,3,0,0,1,.71.07.66.66,0,0,1,.37.22.78.78,0,0,1,.14.35,5.41,5.41,0,0,1,0,.61v3a9.65,9.65,0,0,1-.05,1,3.08,3.08,0,0,1-.23.82,1.78,1.78,0,0,1-.78.83,2.42,2.42,0,0,1-1.21.32,2.17,2.17,0,0,1-1.11-.3,1.67,1.67,0,0,1-.72-.8,3.14,3.14,0,0,1-.16-.71,7.32,7.32,0,0,1-.05-.94v-3.5a1.59,1.59,0,0,1,.08-.57.58.58,0,0,1,.35-.31,2.26,2.26,0,0,1,.81-.11v-.57H18.84v.57a1.48,1.48,0,0,1,1,.23,1.11,1.11,0,0,1,.21.77v3.5c0,.3,0,.54,0,.72a2.88,2.88,0,0,0,.1.59,3.21,3.21,0,0,0,.23.62,2.23,2.23,0,0,0,.8.91,3.58,3.58,0,0,0,1.13.5,4.83,4.83,0,0,0,1.19.16,4.56,4.56,0,0,0,1.63-.32,2.48,2.48,0,0,0,1.32-1.17,2.37,2.37,0,0,0,.31-.87,11.06,11.06,0,0,0,.06-1.29v-3.1a3.72,3.72,0,0,1,.06-.74.55.55,0,0,1,.3-.37,1.81,1.81,0,0,1,.81-.13v-.57h-3.1Z"/><path class="cls-1" d="M44.69,171.38v.57a1.84,1.84,0,0,1,.82.14.61.61,0,0,1,.32.39,3.23,3.23,0,0,1,.06.72V177l-4.79-5.65H38.66v.57a1.8,1.8,0,0,1,.66.17.77.77,0,0,1,.34.32,1.26,1.26,0,0,1,.13.45c0,.17,0,.44,0,.78V178a3.61,3.61,0,0,1-.06.77.57.57,0,0,1-.31.37,1.9,1.9,0,0,1-.81.13v.57h3.13v-.57a2.13,2.13,0,0,1-.86-.13.56.56,0,0,1-.33-.37,3.26,3.26,0,0,1-.06-.77v-4.63l5.5,6.54h.57v-6.67a3.47,3.47,0,0,1,.06-.77.56.56,0,0,1,.32-.36,2.15,2.15,0,0,1,.86-.12v-.56Z"/><path class="cls-1" d="M58.43,171.95a1.54,1.54,0,0,1,1,.23,1,1,0,0,1,.23.77v5.28a1.64,1.64,0,0,1-.08.58.56.56,0,0,1-.36.3,2.34,2.34,0,0,1-.8.11v.57H62.7v-.57a2.13,2.13,0,0,1-.82-.12.56.56,0,0,1-.34-.31,1.54,1.54,0,0,1-.08-.57v-5.28a1.62,1.62,0,0,1,.08-.59.58.58,0,0,1,.36-.3,2.36,2.36,0,0,1,.81-.11v-.57H58.43Z"/><path class="cls-1" d="M79.47,171.95a3,3,0,0,1,.84.11c.18.07.28.23.28.5a2.46,2.46,0,0,1-.23.75l-1.79,4.19L76.64,173a1.43,1.43,0,0,1-.15-.6.35.35,0,0,1,.23-.38,4.27,4.27,0,0,1,.84-.1v-.57H73.29v.57a2.12,2.12,0,0,1,.74.1.79.79,0,0,1,.4.33,7.5,7.5,0,0,1,.41.86l2.87,6.71h.58L81,173.55c.17-.39.3-.68.4-.86a2.15,2.15,0,0,1,.29-.43.84.84,0,0,1,.36-.23,1.75,1.75,0,0,1,.51-.08v-.56H79.47Z"/><path class="cls-1" d="M99.68,178.43a1.55,1.55,0,0,1-.76.55,2.74,2.74,0,0,1-.81.11h-.68a2.94,2.94,0,0,1-.7-.06.66.66,0,0,1-.35-.23.83.83,0,0,1-.14-.38c0-.16,0-.4,0-.73v-2h.86a2,2,0,0,1,.66.08.49.49,0,0,1,.31.29,2,2,0,0,1,.13.69h.57V174h-.59a2.46,2.46,0,0,1-.12.68.49.49,0,0,1-.31.29,2.12,2.12,0,0,1-.66.08h-.85v-3h1.58a4.32,4.32,0,0,1,.94.08,1.05,1.05,0,0,1,.57.38,2.78,2.78,0,0,1,.44,1h.57l-.1-2.18h-7v.57a2.25,2.25,0,0,1,.82.11.56.56,0,0,1,.34.32,1.87,1.87,0,0,1,.07.56v5.28a1.12,1.12,0,0,1-.22.78,1.55,1.55,0,0,1-1,.22v.57h7.49l.07-2.76h-.57A3,3,0,0,1,99.68,178.43Z"/><path class="cls-1" d="M120.26,179.08a1.66,1.66,0,0,1-.47-.42,9.19,9.19,0,0,1-.64-.91c-.45-.7-.78-1.19-1-1.45a2.8,2.8,0,0,0-.77-.66,3.13,3.13,0,0,0,1.06-.49,1.84,1.84,0,0,0,.59-.71,1.89,1.89,0,0,0,.18-.81,2,2,0,0,0-.26-1,2.24,2.24,0,0,0-.68-.72,2.92,2.92,0,0,0-.89-.39,5.49,5.49,0,0,0-.86-.15c-.36,0-.75-.06-1.17-.08h-1.17l-.51,0-1.94.06v.59a1.48,1.48,0,0,1,1,.23,1.11,1.11,0,0,1,.21.77v5.3a1.06,1.06,0,0,1-.22.77,1.49,1.49,0,0,1-1,.23v.57h4.21v-.57a2.11,2.11,0,0,1-.8-.12.53.53,0,0,1-.35-.32,1.59,1.59,0,0,1-.08-.56V176H115a3.87,3.87,0,0,1,.85.06.88.88,0,0,1,.45.3,7.67,7.67,0,0,1,.58.87l.57.94.35.58c.15.23.28.44.4.61a3.09,3.09,0,0,0,.31.4h2.24v-.56A1.75,1.75,0,0,1,120.26,179.08ZM116.68,175a3.66,3.66,0,0,1-1.58.31h-.39V172h.39a3.36,3.36,0,0,1,1.6.33,1.38,1.38,0,0,1,.62,1.33C117.32,174.36,117.11,174.84,116.68,175Z"/><path class="cls-1" d="M136.44,175.38a15.34,15.34,0,0,0-1.45-.76c-.51-.24-.88-.42-1.11-.55a1.9,1.9,0,0,1-.55-.46,1,1,0,0,1-.21-.64,1,1,0,0,1,.34-.76,1.32,1.32,0,0,1,.9-.3q1.54,0,2.15,1.92h.58v-2.34h-.58a3.56,3.56,0,0,1-.2.73,2.85,2.85,0,0,0-.92-.72,2.5,2.5,0,0,0-1.12-.26,2.59,2.59,0,0,0-1.35.35,2.45,2.45,0,0,0-.89.9,2.23,2.23,0,0,0-.3,1.11,2.11,2.11,0,0,0,.09.62,2.48,2.48,0,0,0,.35.65,3.45,3.45,0,0,0,.74.71,7.21,7.21,0,0,0,1.25.72l.88.42a4.54,4.54,0,0,1,.61.38,1.32,1.32,0,0,1,.34.4,1.08,1.08,0,0,1,.11.52,1.12,1.12,0,0,1-.39.87,1.44,1.44,0,0,1-1,.34,1.9,1.9,0,0,1-1.22-.39,2.68,2.68,0,0,1-.77-.94,5.72,5.72,0,0,1-.43-1.16h-.57v2.88h.57a3.62,3.62,0,0,1,.25-.85,3,3,0,0,0,1.12.87,3.3,3.3,0,0,0,1.33.29,2.73,2.73,0,0,0,1.19-.25A2.55,2.55,0,0,0,137,179a2.92,2.92,0,0,0,.5-.84,2.39,2.39,0,0,0,.17-.83,2,2,0,0,0-.36-1.18A3.22,3.22,0,0,0,136.44,175.38Z"/><path class="cls-1" d="M148.64,171.95a1.55,1.55,0,0,1,1,.23,1.06,1.06,0,0,1,.23.77v5.28a1.6,1.6,0,0,1-.08.58.57.57,0,0,1-.36.3,2.35,2.35,0,0,1-.81.11v.57h4.27v-.57a2.13,2.13,0,0,1-.82-.12.58.58,0,0,1-.34-.31,1.61,1.61,0,0,1-.08-.57v-5.28a1.76,1.76,0,0,1,.08-.59.58.58,0,0,1,.36-.3,2.34,2.34,0,0,1,.8-.11v-.57h-4.27Z"/><path class="cls-1" d="M163.66,173.76h.59a2.18,2.18,0,0,1,.3-1.16,1.09,1.09,0,0,1,.61-.46,3.86,3.86,0,0,1,.87-.08h.89v6.15a1.05,1.05,0,0,1-.22.77,1.48,1.48,0,0,1-1,.23v.57h4.21v-.57a2.09,2.09,0,0,1-.8-.12.56.56,0,0,1-.35-.31,1.74,1.74,0,0,1-.07-.57v-6.15h1.07a2.44,2.44,0,0,1,.69.09,1.08,1.08,0,0,1,.57.46,2.45,2.45,0,0,1,.34,1.15H172v-2.38h-8.31Z"/><path class="cls-1" d="M188.26,172a2,2,0,0,1,.71.1c.17.07.26.23.26.49a2.14,2.14,0,0,1-.4.94l-1.25,2-1.31-2.21a6.62,6.62,0,0,1-.34-.63.67.67,0,0,1-.07-.28.29.29,0,0,1,.11-.26.61.61,0,0,1,.28-.1l.47,0v-.57h-3.95V172a1.28,1.28,0,0,1,.63.15,1.84,1.84,0,0,1,.49.58l0,.06.06.08,2.11,3.52v1.88a1.61,1.61,0,0,1-.08.58.57.57,0,0,1-.35.31,2.34,2.34,0,0,1-.8.11v.57h4.23v-.57a1.89,1.89,0,0,1-.82-.13.55.55,0,0,1-.33-.32,1.57,1.57,0,0,1-.08-.55v-2l1.77-2.73c.29-.45.52-.77.67-1a1.54,1.54,0,0,1,.45-.43,1.45,1.45,0,0,1,.57-.16h0v-.56h-3.06Z"/><path class="cls-1" d="M163.08,160.09l.09-.32H162l-.07.11a1.71,1.71,0,0,1-1.47.91,2.29,2.29,0,0,1-1.29-.41,8.62,8.62,0,0,1-1.7-1.94,12.08,12.08,0,0,0,1-2,6.76,6.76,0,0,1,1.35-2.31,3.47,3.47,0,0,1,1.48-.81l.09,0,.19,0V152h-5.73v1.26l.23,0h.11c1.3.15,1.47.7,1.47,1.16a4.35,4.35,0,0,1-.36,1.41,8,8,0,0,1-.72,1.35l-3.3-4.57c2.09-1.13,3.16-2.33,3.16-3.58a2.53,2.53,0,0,0-1.17-2.17,4.28,4.28,0,0,0-2.48-.78,3.52,3.52,0,0,0-2.61,1.06,3.39,3.39,0,0,0-1,2.41,6.17,6.17,0,0,0,1.23,3.31,13.79,13.79,0,0,0-2.82,2.37,4.17,4.17,0,0,0-.88,2.68,4.4,4.4,0,0,0,.7,2.46,4.92,4.92,0,0,0,4.09,2.21,6,6,0,0,0,4.29-2.11,5.16,5.16,0,0,0,4,2.11,3.36,3.36,0,0,0,2.06-.66,3.06,3.06,0,0,0,1.18-1.75Zm-10.54-8.52a5.11,5.11,0,0,1-1.12-2.55,1.6,1.6,0,0,1,.4-1.12,1.52,1.52,0,0,1,2.14,0,1.83,1.83,0,0,1,.42,1.26C154.38,150,153.76,150.79,152.54,151.57Zm-1.34,2.49c1.06,1.42,2.33,3.23,3.77,5.42a3.45,3.45,0,0,1-2.48,1.26,3.08,3.08,0,0,1-2.31-1.14,3.61,3.61,0,0,1-1-2.44,3,3,0,0,1,.6-1.7A5.28,5.28,0,0,1,151.21,154.06Z"/><path class="cls-1" d="M198.26,177.94v0a.56.56,0,0,0,.44-.55.55.55,0,0,0-.2-.47,1.21,1.21,0,0,0-.7-.17,4.43,4.43,0,0,0-.64.05V179h.36v-1h.25a.42.42,0,0,1,.48.39,1.64,1.64,0,0,0,.15.57h.38a1.8,1.8,0,0,1-.15-.56C198.59,178.16,198.45,178,198.26,177.94Zm-.48-.14h-.26V177l.26,0c.41,0,.55.19.55.39S198.07,177.8,197.77,177.8Z"/><path class="cls-1" d="M197.9,175.86h0a2,2,0,1,0,2,2A2,2,0,0,0,197.89,175.86Zm0,3.72a1.71,1.71,0,0,1,0-3.41h0a1.71,1.71,0,0,1,0,3.41Z"/></svg>