<?xml version="1.0" standalone="no"?>
<!DOCTYPE svg PUBLIC "-//W3C//DTD SVG 20010904//EN"
 "http://www.w3.org/TR/2001/REC-SVG-20010904/DTD/svg10.dtd">
<svg version="1.0" xmlns="http://www.w3.org/2000/svg"
 width="1021.000000pt" height="1009.000000pt" viewBox="0 0 1021.000000 1009.000000"
 preserveAspectRatio="xMidYMid meet">
<metadata>
Created by potrace 1.16, written by Peter Selinger 2001-2019
</metadata>
<g transform="translate(0.000000,1009.000000) scale(0.100000,-0.100000)"
fill="#000000" stroke="none">
<path d="M100 7510 l0 -1370 895 0 c492 0 895 -3 895 -7 0 -5 -30 -60 -66
-123 -107 -185 -101 -160 -61 -232 85 -156 101 -185 118 -210 18 -25 19 -90
21 -1635 l3 -1608 617 -3 618 -2 2 -678 3 -677 1995 0 1995 0 3 677 2 678 518
2 517 3 3 1597 2 1598 21 37 c23 40 52 93 95 171 15 26 33 56 40 67 25 35 17
58 -66 200 -40 69 -70 126 -70 135 0 6 351 11 948 12 l947 3 0 1365 0 1365
-1997 3 -1998 2 0 -760 0 -760 -1010 0 -1010 0 0 760 0 760 -1990 0 -1990 0 0
-1370z m3821 484 c15 -4 16 -76 15 -847 0 -463 -4 -847 -8 -853 -5 -7 -563
-10 -1845 -10 l-1838 1 -2 845 c-1 465 0 850 2 857 3 8 449 11 1832 11 1005 1
1835 -1 1844 -4z m6010 0 l25 -5 0 -842 c-1 -463 -4 -847 -8 -853 -5 -7 -568
-10 -1855 -10 l-1848 1 -2 845 c-1 465 -1 850 2 857 3 8 450 11 1832 12 1005
0 1839 -2 1854 -5z m-3831 -1314 l0 -540 965 0 c531 0 965 -3 965 -7 0 -4 -36
-71 -81 -149 l-81 -143 35 -63 c18 -35 44 -81 57 -103 13 -22 36 -63 51 -92
l29 -51 0 -1536 0 -1536 -450 0 -450 0 0 830 0 830 -2000 0 -2000 0 0 -830 0
-830 -550 0 -550 0 0 1530 0 1529 21 38 c12 21 33 58 47 83 13 25 32 59 42 75
10 17 29 51 44 77 l26 48 -30 50 c-17 28 -30 53 -30 56 0 3 -8 18 -18 32 -27
38 -82 141 -82 153 0 5 388 9 1010 9 l1010 0 0 540 0 540 1010 0 1010 0 0
-540z m876 -3430 l21 -8 0 -1065 c-1 -989 -2 -1066 -17 -1070 -26 -7 -3545 -8
-3627 -1 l-71 6 0 1067 c0 586 2 1069 4 1072 5 9 3666 8 3690 -1z"/>
<path d="M5000 7158 c-18 -13 -44 -43 -58 -68 -23 -40 -26 -56 -27 -140 0 -86
3 -99 27 -142 36 -61 72 -88 116 -88 29 0 43 8 76 43 49 51 66 103 66 194 -1
113 -72 223 -145 223 -12 0 -37 -10 -55 -22z"/>
<path d="M5860 7153 c-8 -3 -28 -11 -45 -19 -16 -7 -46 -14 -65 -16 l-35 -3 0
-160 c-1 -88 3 -168 8 -178 6 -14 16 -16 50 -11 95 12 87 1 87 125 0 100 2
110 18 107 15 -3 17 -18 20 -111 l3 -107 66 0 66 0 -7 103 c-9 150 -42 229
-108 263 -29 15 -34 16 -58 7z"/>
<path d="M4253 7863 c-51 -54 -93 -100 -93 -104 0 -3 14 -18 30 -34 30 -28 30
-30 30 -137 l0 -109 68 3 67 3 3 238 c1 130 -1 237 -5 237 -5 0 -50 -44 -100
-97z"/>
</g>
</svg>
