<?xml version="1.0"?>
<svg xmlns="http://www.w3.org/2000/svg" viewBox="0 0 128 128" width="512" height="512"><path d="M118.66,74.293l-1.1-2.115a6.995,6.995,0,1,0-9.2-10.078h-54.2L66.594,44.655a4,4,0,0,1,3.257-1.68h7.465A7,7,0,1,0,86.54,32.937l1.107-2.123a13.5,13.5,0,1,0-9.126,0l1.107,2.123a7.047,7.047,0,0,0-2.249,2.038H69.851a12.017,12.017,0,0,0-9.773,5.039L44.34,62.1h-20.7a7.035,7.035,0,0,0-2.3-2.088l1.123-2.153a13.5,13.5,0,1,0-9.126,0l1.123,2.153A7,7,0,1,0,23.64,70.1H84.489L71.852,87.839a4.009,4.009,0,0,1-3.258,1.678H51.661a6.995,6.995,0,1,0-9.417,9.92l-.913,1.749a13.5,13.5,0,1,0,9.126,0l-.912-1.749a7.034,7.034,0,0,0,2.054-1.92H68.594a12.023,12.023,0,0,0,9.773-5.036L94.313,70.1H108.36a7.047,7.047,0,0,0,2.277,2.078l-1.1,2.115a13.5,13.5,0,1,0,9.125,0Z" fill="#e6e7e8"/><path d="M104.1,62.1a5.967,5.967,0,0,1,.81-3H48.223L61.779,40.075a5.007,5.007,0,0,1,4.072-2.1h8.017a5.965,5.965,0,0,1,.051-6H65.851a11.017,11.017,0,0,0-8.959,4.619L40.855,59.1H19.094a5.967,5.967,0,0,1,0,6H82.43L68.666,84.419a5,5,0,0,1-4.072,2.1H47.11a5.968,5.968,0,0,1-.05,6H64.594A11.019,11.019,0,0,0,73.552,87.9L89.8,65.1h15.108A5.967,5.967,0,0,1,104.1,62.1Z" fill="#0089ef"/><circle cx="41.894" cy="89.476" r="6" fill="#6dc9f7"/><circle cx="79.084" cy="35.017" r="6" fill="#6dc9f7"/><circle cx="13.903" cy="62.101" r="6" fill="#6dc9f7"/><circle cx="110.097" cy="62.101" r="6" fill="#6dc9f7"/><path d="M91.584,14.112A12.5,12.5,0,1,0,75.223,26l3.861,7.4L82.945,26A12.5,12.5,0,0,0,91.584,14.112Z" fill="#fa759e"/><path d="M79.084,4.612a12.5,12.5,0,0,1,12.4,11,12.5,12.5,0,1,0-24.8,0A12.5,12.5,0,0,1,79.084,4.612Z" fill="#fff"/><path d="M77.118,11.632a.779.779,0,0,1,.426-.126.907.907,0,0,1,.6.222.676.676,0,0,1,.264.534.769.769,0,0,1-.084.348l-2.16,4.428a.856.856,0,0,1-.36.4,1.034,1.034,0,0,1-1.032,0,.925.925,0,0,1-.372-.4L72.24,12.61a.817.817,0,0,1-.072-.324.688.688,0,0,1,.282-.552.977.977,0,0,1,.63-.228.85.85,0,0,1,.456.126.867.867,0,0,1,.324.378l1.476,3.228L76.8,12.01A.882.882,0,0,1,77.118,11.632Z" fill="#fff"/><path d="M85.284,16.75q0,.756-.889.756H79.932a.8.8,0,0,1-.594-.222.753.753,0,0,1-.222-.558,1.114,1.114,0,0,1,.348-.792l2.639-2.8a2.649,2.649,0,0,0,.889-1.728.981.981,0,0,0-.276-.75,1.136,1.136,0,0,0-.8-.258,2.208,2.208,0,0,0-.84.156,6.756,6.756,0,0,0-.888.456c-.137.08-.24.136-.312.168a.616.616,0,0,1-.252.048A.535.535,0,0,1,79.187,11a.873.873,0,0,1-.179-.546.815.815,0,0,1,.078-.378.747.747,0,0,1,.258-.27,4.478,4.478,0,0,1,1.242-.63A4.43,4.43,0,0,1,82,8.938a3.627,3.627,0,0,1,1.494.288,2.238,2.238,0,0,1,.989.822,2.2,2.2,0,0,1,.349,1.23,3.022,3.022,0,0,1-.307,1.356A5.941,5.941,0,0,1,83.5,14.026l-1.884,1.98H84.4Q85.285,16.006,85.284,16.75Z" fill="#fff"/><path d="M26.4,41.157A12.5,12.5,0,1,0,10.042,53.043l3.861,7.4,3.861-7.4A12.5,12.5,0,0,0,26.4,41.157Z" fill="#fa759e"/><path d="M11.937,38.678a.779.779,0,0,1,.426-.126.907.907,0,0,1,.6.222.676.676,0,0,1,.264.534.769.769,0,0,1-.084.348l-2.16,4.428a.861.861,0,0,1-.36.4,1.04,1.04,0,0,1-1.032,0,.93.93,0,0,1-.372-.4l-2.16-4.428a.822.822,0,0,1-.072-.325.687.687,0,0,1,.282-.551.973.973,0,0,1,.63-.228.85.85,0,0,1,.456.126.867.867,0,0,1,.324.378l1.476,3.228,1.464-3.228A.882.882,0,0,1,11.937,38.678Z" fill="#fff"/><path d="M20.259,43.8q0,.756-.877.756h-4.1q-.888,0-.887-.756t.887-.744h1.116V38.143l-1.056.637a.7.7,0,0,1-.36.108.638.638,0,0,1-.509-.252.859.859,0,0,1-.21-.564.694.694,0,0,1,.371-.637l1.9-1.139a1.624,1.624,0,0,1,.841-.252.854.854,0,0,1,.9.911v6.1h1.115Q20.258,43.052,20.259,43.8Z" fill="#fff"/><path d="M122.6,83A12.5,12.5,0,1,1,106.236,71.11l3.861-7.4,3.861,7.4A12.5,12.5,0,0,1,122.6,83Z" fill="#fa759e"/><path d="M108.131,80.143a.779.779,0,0,1,.426-.126.907.907,0,0,1,.6.222.676.676,0,0,1,.264.534.769.769,0,0,1-.084.348l-2.16,4.428a.861.861,0,0,1-.36.4,1.034,1.034,0,0,1-1.032,0,.93.93,0,0,1-.372-.4l-2.16-4.428a.821.821,0,0,1-.072-.324.688.688,0,0,1,.282-.552.977.977,0,0,1,.63-.228.85.85,0,0,1,.456.126.867.867,0,0,1,.324.378l1.476,3.228,1.464-3.228A.882.882,0,0,1,108.131,80.143Z" fill="#fff"/><path d="M116.621,83.749q0,.72-.876.72H115.3v.684a.914.914,0,1,1-1.824,0v-.684h-2.916a.782.782,0,0,1-.588-.222.768.768,0,0,1-.216-.558,1.19,1.19,0,0,1,.228-.672l3.576-5.112a.913.913,0,0,1,.36-.306,1.055,1.055,0,0,1,.456-.1.943.943,0,0,1,.648.246.862.862,0,0,1,.276.678v4.62h.444Q116.621,83.041,116.621,83.749Zm-4.98-.708h1.836V80.4Z" fill="#fff"/><path d="M54.394,109.888A12.5,12.5,0,1,1,38.033,98l3.861-7.4L45.755,98A12.5,12.5,0,0,1,54.394,109.888Z" fill="#fa759e"/><path d="M61.368,66.1a1,1,0,0,0,0-2H53.493a1,1,0,1,0,0,2Z" fill="#3a2c60"/><path d="M114.66,70.293l-1.1-2.118A6.993,6.993,0,1,0,104.361,58.1h-54.2L62.594,40.655a4.005,4.005,0,0,1,3.257-1.679h7.466a6.994,6.994,0,1,0,9.221-10.035l1.109-2.127a13.5,13.5,0,1,0-9.126,0l1.109,2.127a7.045,7.045,0,0,0-2.248,2.035H65.851a12.018,12.018,0,0,0-9.773,5.038L40.339,58.1H19.64a7.057,7.057,0,0,0-2.3-2.085l1.125-2.157a13.5,13.5,0,1,0-9.126,0l1.125,2.157A6.993,6.993,0,1,0,19.639,66.1H49.223a1,1,0,0,0,0-2H20.608a6.86,6.86,0,0,0-.006-4H40.855a1,1,0,0,0,.814-.42L57.707,37.174a10.014,10.014,0,0,1,8.144-4.2h6.543a6.886,6.886,0,0,0-.026,4H65.851a6.01,6.01,0,0,0-4.887,2.519L47.408,58.521a1,1,0,0,0,.815,1.58h55.169a6.86,6.86,0,0,0,.006,4H89.8a1,1,0,0,0-.814.42l-16.245,22.8a10.019,10.019,0,0,1-8.144,4.2H48.588a6.93,6.93,0,0,0,.022-4H64.594A6.016,6.016,0,0,0,69.481,85L83.244,65.681a1,1,0,0,0-.814-1.58H65.868a1,1,0,0,0,0,2H80.489L67.852,83.838a4.009,4.009,0,0,1-3.258,1.68H47.662a7,7,0,1,0-9.421,9.924l-.909,1.744a13.5,13.5,0,1,0,9.125,0l-.91-1.745a7.047,7.047,0,0,0,2.044-1.923h17a12.025,12.025,0,0,0,9.773-5.036L90.313,66.1h14.048a7.061,7.061,0,0,0,2.278,2.074l-1.1,2.118a13.5,13.5,0,1,0,9.126,0ZM2.4,41.157A11.5,11.5,0,1,1,17.456,52.091a1,1,0,0,0-.579.489l-2.974,5.7-2.975-5.7a1,1,0,0,0-.578-.489A11.467,11.467,0,0,1,2.4,41.157ZM13.9,67.1a4.975,4.975,0,0,1-2.5-9.29l1.615,3.1a1,1,0,0,0,1.774,0l1.615-3.1a4.975,4.975,0,0,1-2.5,9.29ZM67.584,14.112A11.5,11.5,0,1,1,82.637,25.046a1,1,0,0,0-.578.489l-2.975,5.7-2.975-5.7a1,1,0,0,0-.578-.489A11.468,11.468,0,0,1,67.584,14.112Zm8.983,16.624,1.63,3.127a1,1,0,0,0,1.774,0l1.63-3.127a5,5,0,1,1-5.034,0ZM53.394,109.888A11.5,11.5,0,1,1,38.342,98.954a1,1,0,0,0,.578-.489l2.974-5.7,2.975,5.7a1,1,0,0,0,.577.489A11.469,11.469,0,0,1,53.394,109.888ZM42.781,90.137a1.041,1.041,0,0,0-1.774,0l-1.829,3.509a5,5,0,1,1,5.433,0ZM105.1,62.1a5,5,0,1,1,7.522,4.278l-1.635-3.135a1.04,1.04,0,0,0-1.773,0l-1.636,3.135A4.958,4.958,0,0,1,105.1,62.1Zm5,32.394a11.5,11.5,0,0,1-3.552-22.434,1,1,0,0,0,.578-.489l2.974-5.7,2.975,5.7a1,1,0,0,0,.577.489A11.5,11.5,0,0,1,110.1,94.5Z" fill="#3a2c60"/><path d="M39.928,107.037a.779.779,0,0,1,.426-.126.907.907,0,0,1,.6.222.674.674,0,0,1,.264.533.77.77,0,0,1-.084.349l-2.16,4.428a.861.861,0,0,1-.36.4,1.04,1.04,0,0,1-1.032,0,.93.93,0,0,1-.372-.4l-2.16-4.428a.822.822,0,0,1-.072-.325.686.686,0,0,1,.282-.551.977.977,0,0,1,.63-.228.85.85,0,0,1,.456.126.864.864,0,0,1,.324.377l1.476,3.228,1.464-3.228A.879.879,0,0,1,39.928,107.037Z" fill="#fff"/><path d="M47.452,109.305a2.1,2.1,0,0,1,.4,1.3,2.166,2.166,0,0,1-.377,1.272,2.4,2.4,0,0,1-1.086.834,4.246,4.246,0,0,1-1.644.3,4.877,4.877,0,0,1-1.494-.228,3.851,3.851,0,0,1-1.23-.637.812.812,0,0,1-.258-.288.775.775,0,0,1-.079-.359.826.826,0,0,1,.181-.535.539.539,0,0,1,.432-.221.784.784,0,0,1,.263.042,1.694,1.694,0,0,1,.3.15,8.008,8.008,0,0,0,.912.456,2.382,2.382,0,0,0,.9.155,1.7,1.7,0,0,0,1.068-.27,1.019,1.019,0,0,0,.336-.845.939.939,0,0,0-.348-.816,1.935,1.935,0,0,0-1.116-.252h-.708a.6.6,0,0,1-.492-.217.778.778,0,0,1-.18-.516.765.765,0,0,1,.18-.5.606.606,0,0,1,.492-.215h.5a1.886,1.886,0,0,0,1.086-.252.9.9,0,0,0,.354-.781,1.028,1.028,0,0,0-.3-.785,1.179,1.179,0,0,0-.84-.282,2.2,2.2,0,0,0-.828.155,6.947,6.947,0,0,0-.888.456,1.815,1.815,0,0,1-.3.151.794.794,0,0,1-.264.042.54.54,0,0,1-.432-.222.822.822,0,0,1-.18-.535.781.781,0,0,1,.078-.365.854.854,0,0,1,.258-.283,3.72,3.72,0,0,1,1.206-.635,4.614,4.614,0,0,1,1.434-.228,3.748,3.748,0,0,1,1.5.281,2.237,2.237,0,0,1,1,.8,2.092,2.092,0,0,1,.349,1.2,2.047,2.047,0,0,1-.354,1.194,1.98,1.98,0,0,1-.978.739A2.122,2.122,0,0,1,47.452,109.305Z" fill="#fff"/></svg>
