<svg id="svg" version="1.1" xmlns="http://www.w3.org/2000/svg" xmlns:xlink="http://www.w3.org/1999/xlink" width="400" height="342.24924012158056" viewBox="0, 0, 400,342.24924012158056"><g id="svgg"><path id="path0" d="M202.859 0.640 C 202.308 1.248,202.280 1.923,202.280 14.344 L 202.280 27.408 203.132 28.142 L 203.985 28.875 218.237 28.875 L 232.489 28.875 233.342 28.142 L 234.195 27.408 234.195 14.344 C 234.195 1.923,234.166 1.248,233.616 0.640 C 232.704 -0.367,203.770 -0.367,202.859 0.640 M128.102 35.093 L 127.356 35.839 127.356 48.729 C 127.356 61.310,127.371 61.639,127.986 62.421 L 128.616 63.222 143.313 63.222 L 158.011 63.222 158.641 62.421 C 159.255 61.639,159.271 61.310,159.271 48.729 L 159.271 35.839 158.524 35.093 L 157.778 34.347 143.313 34.347 L 128.848 34.347 128.102 35.093 M165.792 35.093 L 165.046 35.839 165.046 48.869 L 165.046 61.900 165.749 62.561 C 166.451 63.221,166.480 63.222,181.077 63.222 L 195.701 63.222 196.331 62.421 C 196.945 61.639,196.960 61.310,196.960 48.729 L 196.960 35.839 196.214 35.093 L 195.468 34.347 181.003 34.347 L 166.538 34.347 165.792 35.093 M203.132 35.080 L 202.280 35.814 202.280 48.937 L 202.280 62.060 202.997 62.641 C 204.123 63.553,232.505 63.543,233.418 62.631 C 234.334 61.715,234.386 60.840,234.287 47.922 L 234.195 35.813 233.342 35.080 L 232.489 34.347 218.237 34.347 L 203.985 34.347 203.132 35.080 M300.188 45.495 C 289.454 61.627,287.658 80.314,295.399 95.328 L 296.896 98.231 294.932 99.112 C 292.603 100.157,288.875 101.318,285.714 101.982 C 279.024 103.389,283.672 103.332,175.207 103.338 C 62.342 103.344,71.424 103.183,68.456 105.225 C 65.413 107.319,64.438 109.821,64.438 115.533 C 64.438 155.221,81.596 193.278,104.794 205.042 C 105.675 205.488,106.459 205.956,106.536 206.081 C 107.096 206.986,118.617 211.494,124.887 213.260 C 148.845 220.011,183.353 220.783,210.574 215.178 C 260.551 204.887,295.216 176.634,317.019 128.419 C 317.927 126.413,319.578 122.584,320.688 119.909 L 322.708 115.046 327.691 114.855 C 348.462 114.058,364.646 102.768,369.735 85.525 C 370.115 84.235,364.203 80.360,359.422 78.766 C 351.884 76.251,343.961 75.446,335.249 76.307 C 332.997 76.530,330.686 76.720,330.112 76.730 L 329.069 76.748 328.695 74.740 C 326.422 62.517,317.329 50.144,305.838 43.638 C 304.194 42.707,302.781 41.945,302.699 41.945 C 302.617 41.945,301.486 43.542,300.188 45.495 M90.893 69.662 C 90.290 70.310,90.274 70.665,90.274 83.354 L 90.274 96.380 91.020 97.126 L 91.766 97.872 106.231 97.872 L 120.696 97.872 121.442 97.126 L 122.188 96.380 122.188 83.489 C 122.188 70.908,122.173 70.579,121.558 69.798 L 120.929 68.997 106.221 68.997 L 91.513 68.997 90.893 69.662 M128.017 69.700 C 127.359 70.400,127.356 70.475,127.356 83.392 L 127.356 96.380 128.102 97.126 L 128.848 97.872 143.313 97.872 L 157.778 97.872 158.524 97.126 L 159.271 96.380 159.271 83.349 L 159.271 70.319 158.567 69.658 C 157.865 68.998,157.835 68.997,143.270 68.997 L 128.677 68.997 128.017 69.700 M165.706 69.700 C 165.049 70.400,165.046 70.475,165.046 83.392 L 165.046 96.380 165.792 97.126 L 166.538 97.872 181.003 97.872 L 195.468 97.872 196.214 97.126 L 196.960 96.380 196.960 83.349 L 196.960 70.319 196.257 69.658 C 195.555 68.998,195.525 68.997,180.960 68.997 L 166.367 68.997 165.706 69.700 M202.859 69.637 C 202.308 70.245,202.280 70.920,202.280 83.341 L 202.280 96.405 203.132 97.139 L 203.985 97.872 218.237 97.872 L 232.489 97.872 233.342 97.139 L 234.195 96.405 234.195 83.282 L 234.195 70.159 233.477 69.578 C 232.300 68.625,203.725 68.680,202.859 69.637 M240.448 69.798 C 239.833 70.579,239.818 70.908,239.818 83.489 L 239.818 96.380 240.564 97.126 L 241.310 97.872 255.775 97.872 L 270.240 97.872 270.986 97.126 L 271.733 96.380 271.733 83.349 L 271.733 70.319 271.029 69.658 C 270.327 68.998,270.298 68.997,255.702 68.997 L 241.078 68.997 240.448 69.798 M58.511 245.783 C 55.026 247.704,55.019 247.745,55.017 266.059 L 55.015 281.510 53.875 280.607 C 34.857 265.548,4.209 278.069,0.296 302.496 C -5.372 337.874,39.855 357.059,61.463 328.442 C 67.915 319.896,68.147 318.149,68.025 279.027 L 67.933 249.696 67.195 248.408 C 65.628 245.674,61.160 244.324,58.511 245.783 M217.477 245.714 C 216.381 246.197,215.023 247.521,214.333 248.778 C 213.717 249.902,213.387 335.480,213.990 337.722 C 215.280 342.510,221.793 343.836,225.164 339.996 C 226.663 338.288,226.744 337.539,226.746 325.332 L 226.748 314.038 230.319 311.732 L 233.891 309.427 235.608 311.324 C 236.553 312.368,240.848 317.188,245.152 322.036 C 249.457 326.884,253.358 331.261,253.823 331.763 C 254.288 332.264,256.347 334.567,258.400 336.880 C 262.561 341.569,263.537 342.249,266.107 342.249 C 270.858 342.249,273.891 337.778,272.128 333.373 C 271.773 332.486,267.462 327.416,258.325 317.138 L 245.037 302.194 257.397 294.182 C 270.805 285.491,271.868 284.696,272.333 283.025 C 273.998 277.029,268.369 272.245,262.966 275.064 C 262.354 275.384,253.989 280.768,244.377 287.030 L 226.900 298.416 226.748 274.056 C 226.581 247.275,226.709 248.991,224.724 246.988 C 223.091 245.339,219.686 244.741,217.477 245.714 M103.647 274.504 C 75.665 277.705,64.227 313.402,84.893 333.033 C 104.017 351.199,136.346 341.211,141.650 315.499 C 146.466 292.154,127.567 271.767,103.647 274.504 M178.116 274.480 C 162.322 276.363,150.032 289.189,148.607 305.275 C 148.442 307.138,148.374 309.141,148.457 309.726 C 148.540 310.312,148.692 311.733,148.795 312.885 C 151.091 338.483,184.681 351.683,204.079 334.609 C 209.013 330.265,206.767 322.937,200.506 322.954 C 198.127 322.961,198.050 322.995,193.576 326.004 C 188.507 329.412,181.916 330.253,175.932 328.254 C 174.205 327.678,173.286 327.239,170.824 325.817 C 162.534 321.029,159.050 308.414,163.496 299.281 C 169.510 286.926,184.198 283.513,195.500 291.846 C 199.345 294.680,202.809 294.627,205.385 291.693 C 212.525 283.561,194.957 272.472,178.116 274.480 M305.927 274.370 C 286.595 275.504,272.171 292.427,274.124 311.684 C 274.443 314.831,275.351 319.095,275.960 320.307 C 276.102 320.590,276.611 321.704,277.091 322.784 C 286.138 343.138,315.492 349.069,330.827 333.641 C 337.414 327.013,328.749 317.927,321.815 324.191 C 311.640 333.383,295.352 330.048,289.025 317.477 L 287.801 315.046 312.669 314.894 L 337.538 314.742 338.880 313.982 C 341.248 312.641,341.947 311.115,341.935 307.311 C 341.872 288.326,325.370 273.229,305.927 274.370 M352.777 274.591 C 351.258 275.156,349.949 276.421,349.210 278.036 C 348.638 279.286,348.623 280.185,348.702 308.781 L 348.784 338.238 349.741 339.559 C 353.009 344.070,360.235 342.680,361.384 337.319 C 361.581 336.400,361.704 330.032,361.707 320.578 C 361.711 304.387,361.774 303.541,363.219 300.149 C 367.595 289.877,379.070 284.884,390.104 288.451 C 395.974 290.348,399.659 288.407,399.949 283.264 C 400.538 272.853,377.169 270.787,363.571 280.047 C 361.595 281.393,361.799 281.410,361.541 279.883 C 360.844 275.760,356.571 273.180,352.777 274.591 M38.781 287.844 C 57.246 292.526,60.779 316.793,44.400 326.441 C 26.559 336.951,5.673 317.157,15.219 298.784 C 19.773 290.019,29.517 285.495,38.781 287.844 M114.742 288.269 C 133.050 294.481,134.393 319.158,116.869 327.372 C 100.659 334.971,82.796 319.113,88.261 301.976 C 91.803 290.868,103.919 284.597,114.742 288.269 M313.830 288.160 C 320.034 290.066,326.620 296.102,327.823 300.988 L 328.029 301.824 307.940 301.824 L 287.851 301.824 288.458 300.284 C 292.251 290.659,303.878 285.104,313.830 288.160 M374.531 333.334 C 373.255 333.963,372.409 335.042,372.163 336.353 C 371.283 341.043,376.616 343.821,380.000 340.436 C 383.561 336.875,379.100 331.082,374.531 333.334 M378.312 334.628 C 379.807 335.539,380.430 339.514,379.078 339.514 C 378.745 339.514,378.176 337.384,378.462 337.208 C 379.744 336.415,378.156 334.872,376.204 335.013 L 374.924 335.106 374.835 337.462 C 374.752 339.660,374.788 339.818,375.367 339.818 C 375.854 339.818,375.988 339.621,375.988 338.906 C 375.988 338.284,376.138 337.994,376.460 337.994 C 376.719 337.994,377.074 338.404,377.249 338.906 C 377.467 339.530,377.773 339.821,378.221 339.830 C 378.803 339.841,378.779 339.894,378.006 340.313 C 375.135 341.869,372.319 338.166,374.240 335.361 C 375.230 333.916,376.708 333.650,378.312 334.628 M377.134 336.531 C 376.946 337.095,376.292 337.188,376.292 336.651 C 376.292 336.387,376.508 336.170,376.773 336.170 C 377.038 336.170,377.200 336.333,377.134 336.531 " stroke="none" fill="#2494ec" fill-rule="evenodd"></path><path id="path1" d="" stroke="none" fill="#2894ec" fill-rule="evenodd"></path><path id="path2" d="" stroke="none" fill="#2894ec" fill-rule="evenodd"></path><path id="path3" d="" stroke="none" fill="#2894ec" fill-rule="evenodd"></path><path id="path4" d="" stroke="none" fill="#2894ec" fill-rule="evenodd"></path></g></svg>