<?xml version="1.0" standalone="no"?>
<!DOCTYPE svg PUBLIC "-//W3C//DTD SVG 20010904//EN"
 "http://www.w3.org/TR/2001/REC-SVG-20010904/DTD/svg10.dtd">
<svg version="1.0" xmlns="http://www.w3.org/2000/svg"
 width="1291.000000pt" height="1050.000000pt" viewBox="0 0 1291.000000 1050.000000"
 preserveAspectRatio="xMidYMid meet">
<metadata>
Created by potrace 1.16, written by Peter Selinger 2001-2019
</metadata>
<g transform="translate(0.000000,1050.000000) scale(0.100000,-0.100000)"
fill="#000000" stroke="none">
<path d="M3594 10356 c-103 -25 -187 -95 -236 -195 -33 -67 -33 -215 1 -283
36 -74 93 -131 165 -167 l66 -32 0 -1072 c0 -1186 -3 -1118 66 -1223 47 -71
97 -104 269 -181 219 -98 204 -87 230 -170 25 -78 70 -165 119 -227 25 -32
159 -143 361 -300 17 -13 81 -64 143 -112 63 -49 149 -116 192 -149 42 -33
160 -125 261 -204 260 -203 341 -243 529 -258 l95 -8 0 -160 0 -160 -725 -6
c-490 -3 -736 -9 -760 -16 -19 -6 -50 -16 -68 -22 -105 -32 -251 -146 -322
-251 l-39 -57 -173 -6 c-431 -17 -834 -136 -1203 -355 -60 -36 -81 -50 -185
-126 -220 -161 -434 -393 -575 -626 -320 -526 -390 -1140 -195 -1723 41 -123
145 -342 199 -421 17 -25 31 -47 31 -51 0 -12 150 -203 224 -285 356 -393 879
-663 1440 -745 59 -9 195 -18 302 -22 l194 -6 27 -36 c148 -196 350 -311 580
-330 212 -18 398 30 559 145 89 64 124 106 124 151 0 34 -12 49 -173 211 -156
156 -177 174 -213 179 -33 4 -45 1 -71 -21 -92 -77 -202 -76 -284 3 -100 97
-87 233 28 315 77 54 159 47 250 -20 20 -16 45 -24 70 -24 37 0 47 9 216 178
157 158 177 182 177 211 0 47 -12 64 -92 127 -148 115 -281 164 -468 171 -267
11 -486 -79 -652 -268 l-52 -59 -87 0 c-433 0 -808 152 -1079 436 -164 173
-265 362 -316 596 -22 100 -22 338 0 436 67 302 232 557 486 748 138 104 360
206 535 244 74 17 265 39 281 33 10 -4 14 -137 17 -711 4 -754 4 -749 54 -864
72 -162 214 -300 372 -359 119 -44 186 -49 708 -49 l492 0 4 -638 c3 -694 2
-672 63 -799 87 -180 266 -324 454 -364 90 -19 897 -19 985 0 183 39 352 173
444 350 70 137 71 144 71 835 l0 616 493 0 c592 0 635 5 800 92 77 41 191 153
242 237 21 35 49 98 64 140 l25 76 4 717 c2 586 5 717 16 721 14 6 196 -15
284 -32 29 -6 94 -24 143 -41 408 -136 740 -464 847 -835 43 -148 47 -179 46
-340 0 -140 -4 -173 -27 -261 -45 -174 -105 -302 -202 -429 -173 -228 -395
-385 -675 -478 -137 -46 -262 -66 -440 -73 l-145 -6 -90 89 c-171 169 -349
243 -588 243 -174 0 -342 -53 -471 -150 -97 -72 -126 -107 -126 -154 0 -24 29
-58 172 -203 116 -116 182 -176 203 -182 34 -9 71 1 100 29 49 46 136 62 199
36 128 -53 174 -201 97 -308 -70 -98 -190 -116 -294 -45 -56 39 -81 44 -119
26 -40 -18 -346 -332 -353 -362 -11 -44 13 -84 84 -142 86 -69 206 -129 312
-156 123 -31 302 -29 421 4 163 46 324 153 423 280 l50 64 195 7 c344 12 584
60 878 177 142 57 206 88 329 161 607 358 1005 952 1082 1613 6 50 11 151 11
225 0 818 -490 1560 -1277 1937 -73 35 -138 63 -146 63 -7 0 -17 4 -22 9 -25
22 -329 108 -460 130 -38 6 -97 16 -130 21 -33 6 -137 13 -232 17 l-172 6 -24
36 c-96 144 -225 241 -382 288 -54 16 -130 18 -785 23 l-725 5 -2 140 c-1 77
0 149 2 161 4 19 14 22 95 28 52 4 121 17 162 31 120 41 170 76 458 325 54 47
303 261 559 479 303 259 333 290 389 406 17 34 36 66 44 72 7 6 63 32 123 58
297 128 349 165 408 284 l32 66 3 1091 3 1090 37 13 c57 21 127 77 160 129 69
107 78 234 25 341 -129 265 -492 261 -624 -7 -34 -67 -34 -215 0 -284 36 -74
93 -131 165 -167 l66 -32 0 -585 c0 -321 -4 -584 -8 -584 -5 0 -87 35 -183 78
l-174 79 -6 139 c-5 122 -8 146 -31 196 -33 72 -103 148 -169 182 -64 33 -144
46 -289 46 l-115 0 -73 103 c-140 197 -243 278 -420 330 l-77 22 -1200 0
c-1292 0 -1238 2 -1370 -52 -126 -53 -219 -136 -341 -309 l-67 -94 -116 0
c-209 0 -307 -32 -388 -126 -81 -94 -103 -164 -103 -330 l0 -111 -67 -28 c-85
-36 -232 -102 -255 -115 -10 -6 -22 -10 -28 -10 -7 0 -10 198 -10 589 l0 589
26 6 c33 9 103 52 131 82 80 83 116 205 93 314 -40 189 -233 312 -416 266z
m203 -220 c76 -82 59 -198 -38 -264 -28 -20 -44 -23 -94 -20 -204 12 -222 294
-22 338 48 10 117 -14 154 -54z m5614 38 c37 -18 76 -68 90 -112 14 -50 -2
-111 -41 -156 -40 -45 -78 -59 -145 -54 -46 4 -62 10 -92 39 -67 64 -81 141
-38 214 49 84 141 112 226 69z m-1682 -679 c116 -31 195 -85 284 -196 20 -25
37 -51 37 -58 0 -8 -391 -11 -1550 -11 -852 0 -1550 3 -1550 7 0 3 21 34 46
67 76 99 173 166 278 192 81 20 2381 19 2455 -1z m828 -447 c61 -15 127 -78
142 -135 8 -30 11 -280 9 -870 l-3 -828 -24 -60 c-37 -92 -87 -159 -172 -231
-25 -22 -71 -61 -103 -89 -618 -531 -902 -772 -908 -768 -5 2 -8 90 -8 194 0
188 0 190 -25 214 -39 40 -87 33 -137 -18 -1 -1 -5 -112 -8 -247 l-5 -245 -40
-7 c-52 -9 -1532 -8 -1565 1 l-25 7 -5 248 c-5 246 -5 248 -29 267 -30 24 -82
24 -112 0 -24 -19 -24 -23 -27 -213 -1 -106 -5 -199 -7 -206 -5 -14 -39 11
-320 233 -77 61 -178 140 -225 176 -136 105 -283 219 -305 238 -11 9 -49 39
-85 66 -162 124 -210 182 -252 304 l-23 66 0 880 0 880 22 41 c25 47 75 88
124 102 52 15 4057 15 4116 0z m-4437 -1157 c0 -312 -3 -570 -6 -573 -3 -3
-60 18 -127 47 -142 61 -196 105 -216 175 -9 33 -11 134 -9 377 l3 331 30 43
c31 44 74 71 230 141 44 20 83 34 87 31 5 -2 8 -260 8 -572z m4899 524 c152
-68 174 -83 202 -141 22 -46 22 -53 20 -392 -2 -439 10 -412 -220 -516 -68
-31 -126 -54 -129 -52 -3 3 -5 1104 -2 1154 0 5 9 1 129 -53z m-2051 -2797
l-3 -163 -465 0 -465 0 -3 150 c-1 82 0 155 2 162 4 10 99 13 471 13 l465 0
-2 -162z m1617 -353 c195 -50 342 -205 375 -395 8 -46 10 -370 8 -1095 l-3
-1030 -23 -57 c-55 -137 -155 -242 -282 -295 l-65 -28 -2095 0 -2095 0 -70 32
c-121 55 -219 155 -267 273 l-23 55 0 1095 0 1095 37 77 c64 134 184 234 328
272 85 23 4087 23 4175 1z m-4719 -387 c-3 -29 -6 -162 -6 -294 l0 -241 -92
-8 c-179 -14 -316 -45 -476 -107 -142 -55 -293 -140 -402 -227 l-24 -19 -46
40 c-25 23 -72 67 -105 97 -91 85 -115 101 -148 101 -44 0 -87 -44 -87 -88 0
-38 9 -49 169 -194 l84 -76 -60 -74 c-179 -218 -287 -465 -312 -708 l-6 -65
-178 -5 -179 -5 -24 -28 c-31 -36 -31 -78 0 -114 l24 -28 179 -5 178 -5 3 -35
c18 -252 129 -511 315 -738 l59 -73 -78 -73 c-44 -40 -94 -86 -112 -101 -42
-35 -64 -78 -56 -109 8 -33 43 -64 80 -72 35 -7 43 -1 199 142 l100 92 80 -58
c257 -186 604 -300 916 -300 59 0 61 -1 56 -23 -3 -12 -15 -58 -27 -102 -26
-101 -29 -280 -5 -370 26 -98 35 -90 -95 -87 -759 19 -1453 407 -1837 1027
-203 328 -305 739 -273 1103 41 480 226 877 567 1219 265 266 584 455 948 562
192 56 319 78 515 91 63 3 126 7 139 8 23 2 24 0 17 -50z m5549 31 c658 -77
1243 -425 1593 -947 372 -554 422 -1259 132 -1847 -93 -190 -148 -274 -265
-413 -404 -480 -1008 -766 -1655 -784 l-115 -3 2 25 c0 14 9 63 18 110 26 131
12 269 -41 431 -5 14 12 17 123 23 288 15 561 103 793 256 52 34 104 71 116
81 20 19 21 18 145 -95 68 -63 134 -117 147 -121 56 -14 121 51 107 108 -6 20
-143 158 -239 238 -5 4 16 36 46 71 177 203 289 459 323 736 l7 52 169 0 169
0 30 28 c44 38 44 85 1 124 l-31 28 -170 0 -169 0 -6 48 c-36 282 -138 520
-309 724 l-65 77 62 58 c173 162 187 178 187 215 0 49 -37 88 -85 88 -37 0
-46 -7 -185 -136 -30 -29 -68 -63 -84 -76 l-30 -25 -70 51 c-231 169 -491 267
-789 297 -67 7 -125 17 -129 23 -4 6 -5 82 -2 171 3 88 0 212 -5 275 -5 63 -7
118 -5 122 6 9 153 2 279 -13z m-2080 -3349 c0 -688 2 -663 -72 -789 -47 -79
-140 -159 -232 -198 l-66 -28 -425 -3 c-467 -4 -504 -1 -609 51 -87 44 -188
152 -227 244 l-29 68 -3 638 -3 637 833 -2 833 -3 0 -615z m-2501 255 c77 -16
213 -80 230 -107 9 -15 -4 -32 -81 -110 l-91 -91 -54 23 c-43 20 -70 24 -148
25 -88 0 -101 -3 -162 -33 -83 -41 -158 -119 -189 -200 -30 -76 -32 -195 -4
-267 43 -112 149 -210 255 -235 74 -18 194 -8 252 20 l48 22 95 -96 c52 -52
95 -97 95 -99 0 -9 -99 -64 -150 -84 -93 -37 -141 -46 -245 -46 -474 0 -789
504 -579 927 45 92 120 182 199 241 64 48 180 101 248 115 68 13 207 11 281
-5z m3679 -14 c106 -37 180 -84 259 -163 63 -63 85 -95 122 -170 24 -51 49
-117 55 -146 15 -74 13 -216 -4 -289 -53 -225 -235 -412 -460 -474 -93 -25
-230 -29 -315 -9 -65 15 -185 68 -220 98 l-25 21 96 96 96 97 44 -23 c38 -21
58 -24 149 -24 99 0 109 2 172 33 78 38 139 101 176 182 22 47 26 69 26 155 1
90 -2 106 -26 153 -58 112 -117 165 -226 201 -92 31 -189 26 -279 -15 -17 -8
-34 -14 -37 -14 -11 0 -186 177 -186 188 0 25 160 102 255 122 70 16 263 4
328 -19z"/>
<path d="M5015 8543 c-93 -23 -190 -106 -237 -201 l-33 -67 0 -255 c0 -254 0
-255 26 -310 39 -82 100 -144 177 -182 l67 -33 245 -5 245 -5 5 -318 5 -319
28 -24 c15 -13 39 -24 52 -24 13 0 37 11 52 24 l28 24 5 319 5 318 818 3 c650
2 817 0 817 -10 0 -7 0 -149 0 -316 l-1 -303 30 -30 c16 -16 39 -29 50 -29 31
0 68 20 80 44 7 14 12 127 14 331 l2 310 245 5 246 5 66 33 c75 37 143 105
177 177 31 66 38 147 31 375 -5 196 -7 207 -33 260 -34 71 -106 143 -177 178
l-55 27 -1480 1 c-814 1 -1489 0 -1500 -3z m2966 -186 c24 -13 58 -43 74 -66
l30 -43 0 -226 c0 -225 0 -227 -25 -262 -35 -51 -44 -58 -92 -80 -42 -19 -77
-20 -1468 -20 -1357 0 -1427 1 -1465 19 -52 23 -101 80 -115 132 -7 25 -10
114 -8 233 l3 193 30 48 c20 32 45 56 74 72 l44 23 1437 0 1437 0 44 -23z"/>
<path d="M4544 5071 c-92 -23 -195 -104 -238 -190 -47 -93 -47 -100 -44 -1096
3 -915 4 -941 23 -987 46 -108 126 -186 229 -224 49 -18 109 -19 1986 -19
l1935 0 65 24 c51 19 79 39 131 90 56 57 68 76 87 136 l23 70 -3 965 -3 965
-30 60 c-38 77 -105 144 -180 181 l-60 29 -1945 2 c-1070 0 -1959 -2 -1976 -6z
m3879 -172 c49 -13 105 -63 128 -114 18 -38 19 -92 18 -970 l0 -930 -22 -45
c-15 -29 -41 -57 -71 -77 l-48 -33 -1918 0 c-1195 0 -1928 4 -1944 10 -14 5
-43 25 -65 45 -74 67 -71 20 -71 1027 0 631 3 912 11 944 14 56 72 121 124
139 34 12 335 14 1930 15 1289 0 1902 -3 1928 -11z"/>
<path d="M4664 4730 c-53 -21 -54 -30 -54 -377 0 -321 0 -322 23 -348 33 -39
91 -39 123 -1 l24 27 0 324 c0 322 0 324 -22 349 -26 29 -63 39 -94 26z"/>
<path d="M5431 4729 c-94 -19 -175 -90 -211 -187 -30 -79 -29 -298 1 -378 44
-118 143 -186 270 -186 115 0 205 59 255 166 22 47 24 64 24 211 0 148 -2 164
-24 212 -57 122 -185 188 -315 162z m109 -184 c49 -26 60 -60 60 -192 0 -100
-3 -123 -20 -151 -47 -77 -151 -67 -196 19 -19 37 -18 218 1 265 27 65 94 91
155 59z"/>
<path d="M6239 4725 c-15 -8 -32 -29 -38 -46 -15 -44 -15 -604 0 -648 13 -37
35 -51 79 -51 44 0 66 14 79 51 7 21 11 138 11 331 0 324 -3 342 -55 366 -33
15 -44 15 -76 -3z"/>
<path d="M6700 4733 c-8 -3 -25 -15 -37 -26 -23 -20 -23 -21 -23 -352 l0 -332
23 -21 c29 -28 86 -29 118 -3 l24 19 3 330 3 330 -23 25 c-24 26 -62 39 -88
30z"/>
<path d="M7461 4729 c-84 -17 -159 -75 -203 -159 -20 -40 -23 -61 -26 -192 -5
-184 8 -238 74 -308 138 -148 371 -116 467 65 19 35 22 60 25 200 3 144 1 166
-18 217 -48 128 -184 204 -319 177z m120 -192 c14 -12 31 -32 37 -44 18 -33
16 -247 -2 -282 -35 -67 -123 -83 -175 -31 -37 38 -44 70 -39 202 2 84 7 108
23 130 39 52 111 64 156 25z"/>
<path d="M8267 4724 c-15 -8 -32 -26 -37 -40 -13 -34 -13 -625 0 -659 6 -15
24 -32 45 -41 32 -13 39 -13 70 2 21 10 38 27 44 46 15 42 15 619 0 651 -11
25 -57 57 -81 57 -7 -1 -26 -8 -41 -16z"/>
<path d="M4641 3644 l-31 -26 0 -329 0 -330 25 -24 c16 -17 35 -25 60 -25 25
0 44 8 60 25 l25 24 0 325 0 324 -26 31 c-32 39 -71 41 -113 5z"/>
<path d="M5410 3661 c-95 -31 -168 -105 -195 -198 -13 -44 -16 -88 -13 -198 3
-130 5 -144 31 -197 88 -179 329 -214 461 -67 68 75 78 118 74 306 -3 145 -5
162 -28 206 -46 92 -135 148 -240 153 -36 2 -76 0 -90 -5z m121 -176 c56 -30
69 -66 69 -199 0 -108 -2 -123 -22 -152 -39 -57 -90 -68 -146 -34 -48 29 -62
72 -62 188 0 117 15 163 63 192 39 24 59 25 98 5z"/>
<path d="M6234 3656 c-42 -30 -45 -56 -42 -385 l3 -313 28 -24 c38 -33 86 -32
118 2 l24 26 0 329 c0 318 -1 329 -21 349 -27 28 -83 36 -110 16z"/>
<path d="M6683 3660 c-12 -5 -26 -18 -32 -29 -7 -13 -11 -134 -11 -346 l0
-326 25 -24 c30 -31 83 -33 116 -6 l24 19 3 331 3 332 -30 29 c-30 30 -58 36
-98 20z"/>
<path d="M7449 3663 c-48 -7 -131 -66 -165 -116 -47 -68 -54 -103 -54 -259 0
-115 3 -146 21 -194 41 -108 130 -175 246 -182 115 -8 221 52 273 154 24 47
25 57 25 224 l0 175 -31 55 c-63 112 -178 164 -315 143z m106 -177 c60 -25 75
-64 75 -194 0 -126 -9 -156 -61 -192 -52 -38 -120 -15 -155 52 -19 37 -19 227
0 273 14 33 66 75 94 75 7 0 28 -6 47 -14z"/>
<path d="M8253 3646 l-28 -24 0 -330 0 -330 24 -26 c32 -34 80 -35 118 -2 l28
24 2 318 c1 260 -1 322 -13 345 -27 54 -85 65 -131 25z"/>
<path d="M5995 1886 c-35 -36 -42 -72 -18 -104 39 -53 33 -52 540 -50 l472 3
23 23 c34 33 31 97 -5 128 l-28 24 -480 0 -480 0 -24 -24z"/>
<path d="M6008 1435 c-37 -21 -54 -75 -34 -112 8 -16 26 -34 41 -41 19 -9 153
-12 496 -12 l471 0 30 30 c26 27 30 36 25 68 -4 22 -17 46 -32 60 l-26 22
-472 0 c-393 -1 -476 -3 -499 -15z"/>
<path d="M6021 978 c-10 -3 -28 -19 -40 -35 -28 -35 -22 -78 15 -110 l25 -23
478 0 c462 0 479 1 504 20 47 37 43 113 -7 140 -17 9 -143 12 -490 13 -257 1
-475 -1 -485 -5z"/>
</g>
</svg>
